<?xml version="1.0" standalone="no"?>
<!DOCTYPE svg PUBLIC "-//W3C//DTD SVG 1.1//EN" "http://www.w3.org/Graphics/SVG/1.1/DTD/svg11.dtd" >
<svg xmlns="http://www.w3.org/2000/svg">
<metadata>
This is a custom SVG webfont generated by Font Squirrel.
Copyright   : Copyright 1994 Gerard Bernor 9044 Bayou Dr Tampa FL 336355925 813 8828693
</metadata>
<defs>
<font id="webfontmgMlsO60" horiz-adv-x="694" >
<font-face units-per-em="2048" ascent="1638" descent="-410" />
<missing-glyph horiz-adv-x="500" />
<glyph unicode=" " />
<glyph unicode="!" horiz-adv-x="887" d="M338 532l-160 936q-6 37 -6 80q0 107 59.5 174.5t219.5 67.5q114 0 180 -32.5t90 -86t24 -127.5q0 -26 -4 -76l-161 -936h-242zM209 209q0 105 70 166t172 61q49 0 93.5 -17t77.5 -47.5t52.5 -72.5t19.5 -90q0 -100 -68.5 -171t-174.5 -71q-105 0 -173.5 71.5 t-68.5 170.5z" />
<glyph unicode="&#x22;" horiz-adv-x="922" d="M39 1765h354l-90 -422h-164zM506 1765h354l-90 -422h-164z" />
<glyph unicode="#" horiz-adv-x="1679" d="M1188 729h491v-180h-491v-483h-172v483h-311v-475h-173v475h-442v180h442v270h-458v172h458v467h173v-467h311v476h172v-476h483v-172h-483v-270zM1016 999h-311v-270h311v270z" />
<glyph unicode="$" horiz-adv-x="1339" d="M63 193q78 -64 196 -104.5t224 -55.5v-178h404v178q121 18 203.5 56t134.5 95.5t76 134t24 179.5q0 16 -0.5 27t-1.5 24q-7 157 -55 252t-141.5 150t-256.5 98q-69 11 -128 29.5t-107 61t-55 117.5q0 52 34.5 89.5t75.5 37.5q37 0 60.5 -34.5t23.5 -108.5v-96h516v403 q-47 40 -114.5 75t-140 60t-148.5 43v160h-404v-160q-153 -16 -254.5 -87t-148.5 -179t-47 -235q0 -140 52.5 -239t146.5 -158.5t219 -86.5q154 -38 247 -84t93 -141q0 -76 -29.5 -111.5t-73.5 -35.5q-46 0 -84.5 37.5t-38.5 93.5v144h-502v-451z" />
<glyph unicode="%" horiz-adv-x="1870" d="M33 1307v-211q0 -89 62.5 -138.5t144.5 -68.5t147 -19q133 0 235.5 51.5t102.5 190.5v436q0 145 -94 201.5t-260 56.5q-141 0 -239.5 -63t-98.5 -178v-258zM420 1145q0 -29 -5 -39t-28 -10q-33 0 -33 49v354q0 33 5 49.5t28 16.5t28 -16.5t5 -49.5v-354zM1194 209 q10 -136 124.5 -189t229.5 -53q133 0 235.5 51.5t102.5 190.5v420q0 145 -94 201.5t-260 56.5q-141 0 -239.5 -63t-98.5 -179v-436zM1581 225q0 -28 -5 -37.5t-28 -9.5q-32 0 -32 47v355q0 32 5 48.5t27 16.5q23 0 28 -16.5t5 -48.5v-355zM467 0h356l645 1774h-356z" />
<glyph unicode="&#x26;" horiz-adv-x="1499" d="M307 936q-111 -52 -165 -133t-66.5 -156.5t-12.5 -163.5q0 -199 94 -341t343 -142h886v741h66v340h-66v80h-548v-80q-25 -6 -52 -6q-64 0 -110.5 35.5t-46.5 114.5q0 178 112 178q58 0 77.5 -34t19.5 -112h548v340q-64 48 -160.5 84t-206.5 59.5t-228 33.5q-49 6 -103 6 q-108 0 -211 -24.5t-190 -76.5t-141 -133.5t-66 -191.5q-4 -46 -4 -74q0 -122 51 -219.5t180 -124.5zM838 371h-97q-64 0 -88 55t-24 123q0 87 23.5 139.5t88.5 52.5h97v-370z" />
<glyph unicode="'" d="M338 1386q-11 -43 -47.5 -88t-97.5 -104l98 -82q156 92 241 258q43 89 43 172q0 104 -61 168t-176 64q-95 0 -148 -57t-53 -132q0 -79 53.5 -139t147.5 -60z" />
<glyph unicode="(" horiz-adv-x="967" d="M741 1597l-209 144q-74 -82 -133 -163t-111.5 -170.5t-94.5 -182.5q-61 -118 -91 -250.5t-30 -274.5q0 -228 73 -475q37 -125 153 -317t234 -311l209 161q-81 162 -130.5 302.5t-73 272t-23.5 271.5q0 60 2 90q0 402 225 903z" />
<glyph unicode=")" horiz-adv-x="967" d="M145 1597q58 -101 102.5 -214.5t73 -226.5t43.5 -238.5t15 -239.5q0 -252 -63.5 -486t-186.5 -434l225 -178q67 67 144 178.5t136.5 221.5t74.5 165q60 154 88 290.5t28 264.5q0 280 -147 590q-60 118 -135 228t-189 223z" />
<glyph unicode="*" horiz-adv-x="1096" d="M80 1339l291 -98l-178 -242l194 -145l178 258l176 -258l195 145l-195 242l308 98l-82 209l-305 -96l16 305h-242l15 -305l-289 96z" />
<glyph unicode="+" horiz-adv-x="1659" d="M66 975h647v549h295v-541h663v-270h-663v-557h-287v557h-655v262z" />
<glyph unicode="," d="M322 0q-9 -53 -44.5 -99t-99.5 -110l113 -98q72 49 148.5 135.5t125.5 171.5q33 64 33 158q0 116 -65.5 197t-210.5 81q-99 0 -155 -64t-56 -153q0 -52 24 -101.5t71 -81.5t116 -36z" />
<glyph unicode="-" d="M0 903v-420h694v420h-694z" />
<glyph unicode="." d="M96 209q0 -112 74.5 -177t167.5 -65t167.5 65t74.5 177q0 117 -69.5 179.5t-172.5 62.5q-100 0 -171 -67.5t-71 -174.5z" />
<glyph unicode="/" horiz-adv-x="1225" d="M662 1741l-50 -144l-628 -2048h403l64 193l614 1999h-403z" />
<glyph unicode="0" horiz-adv-x="1386" d="M33 532v709q0 174 58.5 284t156.5 167.5t212 77.5t249 20q645 0 645 -533v-741q0 -324 -183.5 -436.5t-461.5 -112.5q-233 0 -382.5 63.5t-221.5 189.5t-72 312zM807 532v725q0 71 -31.5 108.5t-81.5 37.5q-74 0 -94 -38t-20 -108v-741q0 -81 23.5 -121.5t90.5 -40.5 q68 0 90.5 43t22.5 135z" />
<glyph unicode="1" horiz-adv-x="936" d="M129 1757v-321q42 -10 53 -43.5t11 -85.5v-856q0 -48 -10.5 -78t-53.5 -51v-322h678v322q-66 32 -66 129v1306h-612z" />
<glyph unicode="2" horiz-adv-x="1468" d="M612 1128v113q0 162 129 162q54 0 84.5 -41.5t30.5 -99.5q0 -62 -33 -101q-22 -27 -70 -55q-49 -29 -119 -63l-160 -77q-90 -44 -152 -79q-146 -90 -202.5 -197t-56.5 -239v-451h1307v549h-516q-7 -87 -34.5 -129t-67 -54t-105.5 -12h-51q0 142 129 195l159 73l172 84 q85 42 122 68q116 79 174.5 199t58.5 260q0 98 -27.5 185t-82.5 161t-135.5 121t-182.5 57q-111 12 -225 12q-132 0 -257 -18.5t-234 -61.5t-187 -108v-453h532z" />
<glyph unicode="3" horiz-adv-x="1386" d="M63 1597v-419h517v112q0 54 32.5 87.5t75.5 33.5q41 0 74.5 -31t44.5 -90q4 -32 4 -47q0 -75 -52 -118.5t-179 -43.5h-160v-340h192q106 0 157.5 -60t51.5 -146q0 -53 -21.5 -99t-58.5 -65q-26 -13 -55 -13q-47 0 -76.5 36t-29.5 106v144h-517v-482q110 -84 294.5 -139.5 t351.5 -55.5q207 0 338 48.5t197.5 124t92 160.5t33.5 183q0 74 -7 133t-31 117.5t-73.5 110.5t-130.5 92q95 31 144 80t65.5 120t16.5 187q-7 186 -105 290.5t-241 140.5t-314 36q-112 0 -234.5 -25t-229.5 -70t-167 -98z" />
<glyph unicode="4" horiz-adv-x="1419" d="M16 838v-418h693q0 -38 -24.5 -72t-72.5 -57v-291h711v307q-66 42 -66 113h113v371h-113v966h-628zM709 791h-242l242 354v-354z" />
<glyph unicode="5" horiz-adv-x="1339" d="M33 791h532q0 30 24 48.5t58 18.5q43 0 77 -31t34 -86v-225v-45q0 -49 -18 -78.5t-78 -38.5q-65 0 -81 41t-16 121v162h-532v-500q119 -95 297.5 -153t347.5 -58q259 0 401 83.5t192 218t50 315.5q0 63 -14 254q-7 102 -55.5 176.5t-121 118.5t-160 64t-175.5 20 q-131 0 -230 -39v225q89 0 129 -8.5t52 -31t12 -73.5h516v467h-1241v-966z" />
<glyph unicode="6" horiz-adv-x="1386" d="M49 549q0 -17 -0.5 -27.5t-1.5 -23.5q0 -247 149.5 -389t512.5 -142q278 0 418 76.5t183.5 208t43.5 344.5q0 159 -32 264t-110 171t-213 97q-66 17 -141 17q-77 0 -145.5 -16t-116.5 -48q4 39 4 129q0 96 17 144.5t77 48.5q56 0 76.5 -29t20.5 -84v-80h532v387 q-61 55 -169 101t-226 70t-226 24q-38 0 -57 -2q-247 -15 -379.5 -92.5t-174.5 -187t-42 -253.5v-708zM807 483q0 -63 -31.5 -97t-73.5 -34q-43 0 -74.5 34t-31.5 97v179q0 59 31.5 89.5t74.5 30.5q42 0 73.5 -30.5t31.5 -89.5v-179z" />
<glyph unicode="7" horiz-adv-x="1339" d="M49 1757v-708h467v208q0 96 58.5 121t150.5 25l-532 -1403h598l532 1419v338h-1274z" />
<glyph unicode="8" horiz-adv-x="1468" d="M322 920q-122 -38 -184 -130.5t-75 -273.5q0 -200 94 -323.5t250 -174.5t351 -51q170 0 298.5 27t216 88.5t133.5 168.5t46 265q0 83 -21.5 158t-76.5 141.5t-144 104.5q211 119 211 360q0 29 -2 43q-6 114 -53 202t-130 146t-204 88.5t-274 30.5q-218 0 -361.5 -49 t-217.5 -148.5t-83 -253.5q-2 -18 -2 -57q0 -79 22.5 -147.5t73 -124.5t132.5 -90zM870 1257q0 -107 -25.5 -149.5t-86.5 -42.5q-113 0 -113 176q0 74 24 118t89 44q74 0 93 -38t19 -108zM870 565q0 -103 -23 -165t-89 -62q-75 0 -94 60.5t-19 166.5q0 50 5.5 89.5t30 71.5 t77.5 32q112 0 112 -193z" />
<glyph unicode="9" horiz-adv-x="1386" d="M80 532v-387q71 -55 167 -95.5t215.5 -61.5t262.5 -21q283 0 456 125t173 408v725q0 234 -78 361t-222 173.5t-360 46.5q-330 0 -487.5 -133.5t-157.5 -382.5v-209q0 -136 46.5 -235.5t136 -158t219.5 -75.5q52 -4 79 -4q159 0 293 54q0 -308 -114 -308q-53 0 -78 22.5 t-32.5 53t-18.5 102.5h-500zM807 1081q0 -62 -31.5 -97.5t-73.5 -35.5q-43 0 -74.5 35.5t-31.5 97.5v193q0 64 31.5 98.5t74.5 34.5q42 0 73.5 -34.5t31.5 -98.5v-193z" />
<glyph unicode=":" d="M96 952q0 -76 35.5 -131.5t91.5 -83.5t115 -28t115 28t91.5 83.5t35.5 131.5q0 116 -69 179t-173 63q-100 0 -171 -67.5t-71 -174.5zM96 209q0 -112 74.5 -177t167.5 -65t167.5 65t74.5 177q0 117 -69.5 179.5t-172.5 62.5q-100 0 -171 -67.5t-71 -174.5z" />
<glyph unicode=";" d="M113 952q0 -112 75 -177.5t166 -65.5q59 0 115 28t91.5 83.5t35.5 131.5q0 116 -69 179t-173 63q-100 0 -170.5 -68t-70.5 -174zM322 0q-9 -53 -44.5 -99t-99.5 -110l113 -98q72 49 148.5 135.5t125.5 171.5q33 64 33 158q0 116 -65.5 197t-210.5 81q-99 0 -155 -64 t-56 -153q0 -52 24 -101.5t71 -81.5t116 -36z" />
<glyph unicode="&#x3c;" horiz-adv-x="819" d="M35 868l733 293v-211l-524 -207l544 -235v-223l-753 344v239z" />
<glyph unicode="=" horiz-adv-x="1178" d="M41 819h1102v-209h-1102v209zM35 1169h1102v-208h-1102v208z" />
<glyph unicode="&#x3e;" horiz-adv-x="819" d="M788 868v-239l-753 -344v223l545 235l-525 207v211z" />
<glyph unicode="?" horiz-adv-x="1419" d="M80 1597v-452h516v129q0 70 34 102.5t79 32.5q17 0 32 -6q76 -28 76 -111q0 -44 -23.5 -88.5t-52.5 -58.5l-151 -85q-66 -39 -112.5 -73.5t-76.5 -83.5t-30 -112v-259h483q0 67 24.5 113.5t60.5 73.5t90 53.5t67 34.5q122 75 199 182t77 291q0 14 -0.5 23t-1.5 20 q-10 133 -72.5 225t-156.5 145t-196.5 75t-203.5 22q-152 0 -267.5 -23.5t-207 -66t-186.5 -103.5zM403 209q0 -108 64 -175t162 -67q100 0 170.5 68t70.5 174q0 104 -69.5 165.5t-171.5 61.5q-62 0 -114 -29t-82 -82.5t-30 -115.5z" />
<glyph unicode="@" horiz-adv-x="1638" d="M874 758v71q-24 -4 -60 -19t-36 -44q0 -43 33 -43q17 0 36.5 11t26.5 24zM1296 119h-923l-334 260v1046l334 232h919l275 -221v-871l-676 -2v49l-43 -30q-23 -16 -54 -25.5t-71 -9.5q-81 0 -134.5 46t-60.5 148q0 52 26 91.5t65.5 62.5t78.5 31l176 57q1 9 2 19t1 16 q0 46 -33 53q-58 0 -58 -88h-225v162q112 80 299 80q108 0 186 -47t78 -146v-258q0 -19 4.5 -30t12.5 -19l16 -16l139 4v719h-919l-4 -1047h923v-266z" />
<glyph unicode="A" horiz-adv-x="1468" d="M1112 1757l242 -1274q22 -128 98 -176v-307h-694v307q31 23 45 46.5t17 48t3 65.5h-274q0 -60 10.5 -93.5t52.5 -66.5v-307h-596v322q37 39 52.5 72t27.5 106l226 1257h790zM758 807l-80 516l-82 -516h162z" />
<glyph unicode="B" horiz-adv-x="1548" d="M80 1757h678q230 0 376.5 -24.5t240 -119.5t93.5 -290q0 -168 -70 -274t-220 -129q112 -14 184.5 -71.5t105.5 -141.5t33 -189q0 -138 -34 -235.5t-106.5 -160t-186 -92.5t-271.5 -30h-823v322q56 22 69 62t13 116v725q0 86 -13.5 134.5t-68.5 59.5v338zM694 1386v-321 q112 0 165.5 36.5t60.5 123.5q0 55 -27.5 91t-78 53t-120.5 17zM694 741v-370q85 3 133 26t70.5 68t22.5 115q-1 86 -54.5 123.5t-171.5 37.5z" />
<glyph unicode="C" horiz-adv-x="1419" d="M823 1112h547v500q-102 64 -212 103.5t-228 57t-268 17.5q-151 0 -264.5 -34t-186.5 -101t-110.5 -170t-37.5 -244v-725q0 -274 180.5 -403t481.5 -129q141 0 274 22t232 65.5t139 106.5v563h-547v-274q0 -59 -26.5 -90t-63.5 -31q-41 0 -72.5 33.5t-31.5 87.5v807 q0 66 31.5 101.5t72.5 35.5q37 0 63.5 -27.5t26.5 -76.5v-195z" />
<glyph unicode="D" horiz-adv-x="1499" d="M63 1757h824q246 0 413.5 -102t167.5 -414v-692q0 -151 -44.5 -271.5t-169.5 -199t-351 -78.5h-840v322q57 22 69.5 55.5t12.5 105.5v807q0 48 -19 91.5t-63 54.5v321zM709 1370v-999q14 -2 41 -2q87 0 120 36t33 111v725q0 80 -44 104.5t-150 24.5z" />
<glyph unicode="E" horiz-adv-x="1419" d="M80 1757h1323v-612h-516v112q0 113 -193 113v-321h355v-340h-355v-338q82 0 125.5 18.5t55.5 45t12 65.5v129h516v-629h-1323v322q29 15 39 41t12 65q0 37 -2 55v824q0 96 -49 145v305z" />
<glyph unicode="F" horiz-adv-x="1339" d="M63 1757v-321q82 -28 82 -129v-840q0 -103 -65 -145v-322h661v322q-32 34 -39.5 68t-7.5 93v226h338v340h-338v337l84 -13q43 -7 67.5 -32t24.5 -84v-112h484v612h-1291z" />
<glyph unicode="G" horiz-adv-x="1419" d="M63 549v725q0 190 80 300.5t219.5 156t327.5 45.5q55 0 84 -2q317 -24 580 -193v-436h-531v112q0 73 -29 111.5t-71 38.5q-43 0 -77 -45t-34 -121v-758q0 -64 32.5 -99.5t76.5 -35.5q41 0 71.5 32t30.5 87v178h-82v338h613v-838q-38 -45 -144 -87t-234.5 -66.5 t-234.5 -24.5q-263 0 -410.5 59t-207.5 185t-60 338z" />
<glyph unicode="H" horiz-adv-x="1597" d="M80 1757h661v-305q-31 -32 -39 -72.5t-8 -105.5v-193h193v209v51q0 71 -49 111v305h678v-305q-38 -37 -52 -75.5t-14 -88.5l2 -772q0 -80 10.5 -128.5t53.5 -80.5v-307h-678v307q33 21 41 56.5t8 87.5v290h-193l2 -290q0 -46 2 -66.5t11 -37t32 -40.5v-307h-661v307 q39 30 53 71t14 93l-2 786q0 70 -11 117t-54 78v305z" />
<glyph unicode="I" horiz-adv-x="807" d="M63 1757h695v-305q-42 -32 -53 -72.5t-11 -105.5v-774q0 -61 5.5 -95t16.5 -50.5t42 -47.5v-307h-695v307q68 51 68 176l-8 795q0 57 -11 104.5t-49 69.5v305z" />
<glyph unicode="J" horiz-adv-x="854" d="M145 1757h662v-305q-35 -35 -42 -66.5t-7 -111.5l2 -817q0 -142 -42 -240.5t-114 -155.5t-160 -80.5t-182 -23.5q-152 0 -278 43v322q96 0 142 34t56.5 77t10.5 99l4 754q0 63 -15 106t-37 60v305z" />
<glyph unicode="K" horiz-adv-x="1548" d="M80 1757h661v-321q-21 -23 -31 -46t-13 -55.5t-3 -107.5v-178q132 206 160 253t38.5 83t10.5 98v274h596v-321q-32 -13 -61 -45.5t-73 -104.5l-99 -163l-105 -171l170 -344q70 -143 100 -198.5t50 -75t51 -27.5v-307h-629v225q0 66 -9.5 105t-38.5 98.5t-161 312.5 q0 -174 1 -242t5.5 -105t11.5 -50t29 -37v-307h-661v307q40 16 53.5 63t13.5 119l-2 736q0 86 -11 138t-54 73v321z" />
<glyph unicode="L" horiz-adv-x="1386" d="M63 1757h662v-321q-39 -15 -52.5 -50.5t-13.5 -93.5l3 -921q71 0 107 25t50 78t16.5 134.5t2.5 245.5h501v-854h-1290v307q62 26 66 117q0 41 -2 59v791q0 82 -7 112t-43 50v321z" />
<glyph unicode="M" horiz-adv-x="1919" d="M96 1757h711l176 -676l178 676h678v-305l-37 -24q-15 -9 -21 -39.5t-7 -102.5v-770q0 -97 9.5 -134t55.5 -60v-322h-661v322q41 16 54 56t13 148q0 48 -1 92v85q-1 42 -2 92.5t-1 140.5l-242 -936h-161l-242 920v-330q0 -128 4 -177t14.5 -60.5t47.5 -30.5v-322h-566v322 q40 8 54 35t14 67q3 27 -2 59v791q0 102 -15 133t-51 45v305z" />
<glyph unicode="N" horiz-adv-x="1597" d="M96 1757h598l305 -790v307q0 90 -7.5 121.5t-39.5 56.5v305h564v-305q-30 -29 -42.5 -48t-17 -38.5t-4.5 -46.5v-45v-1274h-532l-340 791v-275q0 -76 10.5 -115t54.5 -63v-338h-549v322q40 23 52 53t14 82v59v741q0 102 -12 137.5t-54 57.5v305z" />
<glyph unicode="O" horiz-adv-x="1468" d="M80 532q0 -188 69.5 -313t219 -188.5t389.5 -63.5q180 0 304 33t199 97.5t108.5 159.5t33.5 226v791q0 270 -149 393t-496 123q-174 0 -302.5 -33t-210.5 -99t-123.5 -166t-41.5 -235v-725zM854 516q0 -80 -20 -121t-76 -41q-64 0 -88.5 45t-24.5 117v741q0 74 27 110 t86 36q66 0 81 -30.5t15 -115.5v-741z" />
<glyph unicode="P" horiz-adv-x="1468" d="M80 1757h823q103 0 202.5 -27t181.5 -84.5t131.5 -151t49.5 -220.5v-291q0 -483 -532 -483h-227q-9 -40 -9 -74q0 -41 14 -64t44 -40v-322h-678v322q70 24 70 149q0 22 -2.5 37t-2.5 8v725q0 70 -7.5 106t-21 50t-36.5 22v338zM709 1370v-500q124 0 159 39.5t35 106.5 v194q0 66 -18 99.5t-58 47t-118 13.5z" />
<glyph unicode="Q" horiz-adv-x="1419" d="M63 500v710q0 148 37.5 252.5t116.5 174.5t200.5 103.5t291.5 33.5q172 0 298.5 -30.5t210 -93.5t126 -161t42.5 -232v-757q0 -99 -23 -180t-89 -158q35 -82 112 -99l-176 -321q-86 17 -167.5 50t-141 77.5t-94.5 97.5q-31 -2 -88 -2q-188 0 -319 42t-203 114t-103 167.5 t-31 211.5zM612 1225v-693q0 -56 5.5 -91t30 -61t77.5 -26q67 0 82.5 36.5t15.5 141.5v693q0 94 -25 127.5t-89 33.5q-97 0 -97 -161z" />
<glyph unicode="R" horiz-adv-x="1548" d="M63 1757h807q219 0 400.5 -88t181.5 -379q0 -139 -33 -222.5t-86 -125.5t-139 -72q103 -17 151 -52.5t61 -93t13 -171.5v-86q0 -64 10.5 -101.5t53.5 -58.5v-307h-565q-39 109 -51.5 227t-12.5 305q0 86 -45 115.5t-131 46.5v-211q0 -72 11 -118.5t52 -57.5v-307h-678 v307q33 24 46.5 53t16.5 62.5t3 93.5v725q0 70 -7.5 106t-21.5 50t-37 22v338zM678 1386v-354q70 0 113 10.5t69.5 49.5t26.5 118q-1 108 -47 142t-162 34z" />
<glyph unicode="S" horiz-adv-x="1468" d="M80 629h549v-113q0 -59 14.5 -90t42.5 -43t72 -12q54 11 67 47.5t13 113.5q0 62 -51 102t-109 58.5t-175 48t-165 50.5q-114 46 -174.5 120t-80.5 164t-20 199t31 199t103 157.5t200 105.5t312 38q128 0 241.5 -23t206.5 -61.5t182 -92.5v-419h-516q4 26 4 71 q0 152 -100 152q-34 0 -63 -22t-35 -56q0 -68 38.5 -113t95 -68.5t117 -35.5t119.5 -25q213 -51 313.5 -184t100.5 -317q0 -121 -43 -258q-35 -115 -104.5 -184t-160.5 -103t-173.5 -45t-237.5 -23q-55 0 -142.5 13t-187.5 40.5t-177.5 67.5t-106.5 90v451z" />
<glyph unicode="T" horiz-adv-x="1548" d="M16 1757h1516v-790h-404v307q0 37 -14 61.5t-65 34.5v-870q0 -157 63 -178v-322h-676v307q37 8 50.5 73.5t13.5 135.5v854q-53 0 -66.5 -30t-13.5 -83v-290h-404v790z" />
<glyph unicode="U" horiz-adv-x="1499" d="M63 1757h678v-321q-41 -21 -52 -67t-11 -128v-676q0 -80 5 -120t29 -65t79 -26q63 0 79.5 45.5t16.5 165.5v660q0 117 -10 157t-54 54v321h660v-321q-37 -23 -54.5 -60t-21.5 -77.5t-4 -104.5v-662q0 -261 -128 -416t-497 -155q-138 0 -249.5 22t-203 85t-144 179.5 t-52.5 301.5v676q0 100 -11.5 142.5t-54.5 68.5v321z" />
<glyph unicode="V" horiz-adv-x="1419" d="M16 1757h693v-321q-64 -64 -64 -119q0 -14 17 -92l112 -676l96 676q-1 3 6 35.5t7 52.5q0 83 -60 123v321h613v-321q-33 -33 -50.5 -78t-31.5 -117l-242 -1241h-758l-248 1245q-16 86 -32 116.5t-58 74.5v321z" />
<glyph unicode="W" horiz-adv-x="2048" d="M16 1757h678v-305q-55 -27 -55 -123q0 -27 6 -72l64 -434l178 934h338l194 -934l64 467q0 64 -11 102.5t-53 59.5v305h596v-305q-31 -32 -45.5 -76t-34.5 -135l-241 -1241h-533l-145 838l-162 -838h-532l-209 1241q-18 101 -97 211v305z" />
<glyph unicode="X" horiz-adv-x="1419" d="M33 1757h645v-192q0 -95 80 -226q42 67 61 118.5t19 107.5v192h565v-305q-78 -78 -96 -113l-258 -403l258 -485q51 -101 96 -144v-307h-662v209q0 145 -96 291q-50 -87 -73 -153.5t-23 -137.5v-209h-549v307q43 32 78 88t51 105l258 436l-209 321l-32 50l-38 58 q-23 34 -40.5 54.5t-34.5 32.5v305z" />
<glyph unicode="Y" horiz-adv-x="1419" d="M16 1757h629v-241q0 -76 21.5 -134.5t74.5 -171.5q97 143 97 306v241h565v-305q-78 -78 -129 -178l-291 -596v-227q0 -39 6 -65.5t21.5 -46t38.5 -32.5v-307h-678v307q45 33 55 60.5t10 83.5v211l-274 548q-10 19 -38.5 86.5t-54 108t-53.5 47.5v305z" />
<glyph unicode="Z" horiz-adv-x="1499" d="M80 1757h1339v-305l-694 -1081q136 0 196 20t77.5 67.5t17.5 149.5v133h420v-741h-1356v322l661 1064q-86 0 -133 -7t-75.5 -27.5t-41 -65t-12.5 -121.5q0 -26 4 -100h-403v692z" />
<glyph unicode="[" horiz-adv-x="838" d="M49 1774v-113v-2048h758v324h-275v1515h275v322h-758z" />
<glyph unicode="\" horiz-adv-x="1577" d="M-25 1892l377 172l1245 -2121l-360 -172z" />
<glyph unicode="]" horiz-adv-x="838" d="M49 1774v-322h273v-1515h-273v-324h758v113v2048h-758z" />
<glyph unicode="^" horiz-adv-x="1270" d="M858 2486l369 -602l-159 -52q-96 -32 -95 -34l-295 492l-336 -510l-262 104l434 602h344z" />
<glyph unicode="_" horiz-adv-x="1016" d="M0 0v-436h1032v436h-1032z" />
<glyph unicode="`" horiz-adv-x="774" d="M178 1774l225 -338h242l-113 338h-354z" />
<glyph unicode="a" horiz-adv-x="1307" d="M96 1161v-323h453q0 86 25 132t88 46q39 -8 52 -35t13 -74q0 -22 -0.5 -36.5t-1.5 -32.5l-354 -113q-78 -16 -157 -63t-130 -124t-51 -184q11 -203 118 -295t269 -92q88 0 146 20t124 63l68 46v-96h532v291q-27 25 -37.5 35.5t-19 35t-8.5 58.5v516q0 135 -78.5 222.5 t-199.5 126t-253 38.5q-169 0 -322.5 -36.5t-275.5 -125.5zM725 387q-15 -23 -54 -45.5t-73 -22.5q-66 0 -66 84q0 61 72.5 91t120.5 38v-145z" />
<glyph unicode="b" horiz-adv-x="1307" d="M33 1757v-305q63 -21 63 -145v-1162q87 -57 167.5 -93.5t156.5 -55t141 -24t148 -5.5q106 0 203 20.5t175 69t124 134t46 212.5v533q0 194 -83.5 283.5t-241.5 89.5q-29 0 -45 -2q-159 0 -291 -66v516h-563zM596 709v211q61 28 96 28q82 0 82 -125v-340q0 -88 -21 -127 t-67 -39q-29 0 -90 21v371z" />
<glyph unicode="c" horiz-adv-x="1257" d="M80 403q0 -133 43.5 -217t118.5 -129.5t156 -62.5t198 -27q20 -2 63 -2q67 0 138 10.5t145.5 32.5t140.5 57t111 80v404h-453v-113q0 -81 -20 -121.5t-76 -40.5q-37 0 -54.5 22.5t-21.5 57t-4 97.5v403q0 82 20 122t77 40q52 0 65.5 -32t13.5 -97v-80h453v338 q-142 162 -565 162q-213 0 -333 -47.5t-168 -142t-48 -247.5v-467z" />
<glyph unicode="d" horiz-adv-x="1307" d="M49 387q0 -14 -0.5 -23t-1.5 -20q0 -193 95 -285t245 -92q241 0 322 82v-49h548v291q-30 14 -43.5 44.5t-16.5 69.5t-3 111v1241h-532v-305q47 -23 47 -145v-82q-84 50 -138.5 66t-150.5 16q-210 0 -290.5 -113t-80.5 -274v-533zM709 354q-50 -16 -78 -16 q-54 0 -76.5 49.5t-22.5 161.5v258q0 139 84 139q36 0 93 -26v-566z" />
<glyph unicode="e" horiz-adv-x="1257" d="M63 403q0 -114 35 -193.5t105.5 -131.5t170.5 -77.5t238 -33.5q113 0 237.5 26.5t222 68.5t138.5 83v338h-501v-96q0 -44 -23.5 -71t-54.5 -27q-35 0 -58.5 32t-23.5 99v129h661v403q0 105 -45.5 178t-123 115t-178 60t-218.5 18q-147 0 -253 -19t-179 -67t-111.5 -133.5 t-38.5 -216.5v-484zM549 838q0 93 19.5 135.5t76.5 42.5t76.5 -42.5t19.5 -135.5h-192z" />
<glyph unicode="f" horiz-adv-x="774" d="M33 999h63v-548q0 -64 -10.5 -101.5t-52.5 -58.5v-291h612v291q-45 23 -55 57.5t-10 118.5v532h145v291h-145q0 101 48 139.5t130 38.5v289q-72 22 -153 27.5t-185 5.5q-167 0 -245.5 -116t-78.5 -271v-113h-63v-291z" />
<glyph unicode="g" horiz-adv-x="1339" d="M63 338q0 -84 25 -152.5t73.5 -117.5t121 -75t168.5 -26q88 0 162.5 28t127.5 68v-112v-60q0 -34 -6 -55.5t-26.5 -33t-63.5 -11.5q-37 0 -54.5 18t-21.5 47t-4 81h-469v-308q65 -65 232.5 -114.5t312.5 -49.5q37 0 53 3q191 9 301.5 44t170 136.5t59.5 302.5v903 q0 103 65 145v291h-549v-80q-63 65 -134 81t-171 16q-154 0 -235.5 -56.5t-109.5 -155t-28 -241.5v-516zM741 354q-54 -16 -86 -16q-33 0 -54 20t-28.5 62.5t-7.5 111.5v291q0 67 26.5 100t72.5 33q37 0 77 -20v-582z" />
<glyph unicode="h" horiz-adv-x="1386" d="M63 1757v-321q44 -11 55 -50t11 -96v-839q0 -60 -10.5 -91t-55.5 -53v-307h615v307q-33 11 -41 43.5t-8 85.5v516q40 17 67 17q48 0 71.5 -38.5t23.5 -107.5v-436q0 -53 2 -98.5t8 -113t22 -175.5h531v307q-30 7 -44 29.5t-17 54.5t-3 92v500q0 89 -37.5 154.5t-97.5 105 t-132.5 58t-154.5 18.5q-72 0 -137.5 -16.5t-101.5 -45.5v500h-566z" />
<glyph unicode="i" d="M49 1290v-307q26 -24 36.5 -48t10.5 -81v-403q1 -19 1.5 -35t0.5 -37q0 -64 -49 -88v-291h613v307q-66 0 -66 144v839h-547zM63 1581q0 -54 35 -103.5t95.5 -78.5t128.5 -29q116 0 195 54t79 157q0 69 -37 116.5t-95 70t-126 22.5q-69 0 -131.5 -22.5t-103 -70.5 t-40.5 -116z" />
<glyph unicode="j" d="M63 1290v-307q29 -16 44 -37t19.5 -49.5t4.5 -71.5q0 -33 -0.5 -58.5t-1.5 -57.5v-660q0 -121 -25.5 -167t-95.5 -46q-26 0 -41 2v-289q110 -47 238 -47q147 0 262 62q61 40 93.5 92t43 109.5t10.5 125.5q0 43 -0.5 69t-1.5 56v1274h-549zM80 1597q0 -93 67 -160t191 -67 q84 0 145.5 27.5t95 78.5t33.5 121q-12 94 -86.5 143.5t-187.5 49.5q-110 0 -184 -54t-74 -139z" />
<glyph unicode="k" horiz-adv-x="1339" d="M33 1757v-289q41 -20 52 -68.5t11 -109.5v-823q0 -72 -10.5 -105.5t-52.5 -54.5v-307h629v307q-35 23 -50.5 49t-15.5 64v145l258 -565h453v307q-79 36 -97 96l-161 338l129 179l54 56q28 30 58 40v274h-549v-80q0 -52 -7 -86.5t-38 -80t-100 -107.5v821h-563z" />
<glyph unicode="l" d="M49 1757v-305q43 -11 53.5 -48t10.5 -114v-839q0 -56 -11 -97.5t-53 -62.5v-291h613v291q-25 12 -37.5 29t-19 40.5t-8 50t-1.5 72.5v1274h-547z" />
<glyph unicode="m" horiz-adv-x="2048" d="M63 1290l-14 -307q80 -20 80 -176v-356q0 -60 -10.5 -93.5t-55.5 -66.5v-291h615v291q-36 12 -51 46.5t-15 98.5v516q48 17 78 17q66 0 83.5 -47.5t17.5 -114.5v-453q0 -57 1 -106t3.5 -102.5t11.5 -145.5h532v291q-65 41 -65 145v516q42 15 78 15q61 0 80.5 -43.5 t19.5 -116.5v-453q0 -57 1 -106t3.5 -102.5t11.5 -145.5h531v291q-64 22 -64 176v516q0 356 -370 356q-109 0 -182 -32t-173 -97q-70 81 -128.5 105t-161.5 24q-95 0 -163.5 -25t-144.5 -89v65h-549z" />
<glyph unicode="n" horiz-adv-x="1386" d="M49 1290v-307q64 -22 64 -129v-387q0 -64 -10.5 -101.5t-53.5 -58.5v-307h629v307q-66 42 -66 144v485q36 20 68 20q34 0 59 -21t38.5 -55t13.5 -73v-404q0 -210 16 -403h547v291q-34 24 -49 63.5t-15 112.5v516q0 67 -21.5 142t-100.5 136.5t-232 61.5 q-102 0 -174.5 -13.5t-149.5 -68.5v49h-563z" />
<glyph unicode="o" horiz-adv-x="1257" d="M49 451q0 -190 62.5 -291t186.5 -138.5t331 -37.5q158 0 262.5 17.5t176 63.5t107 132t35.5 223v483q0 162 -54 252.5t-180 129t-347 38.5q-220 0 -345.5 -40.5t-180 -132.5t-54.5 -247v-452zM725 420q0 -43 -13 -72.5t-35.5 -45t-47.5 -15.5q-39 0 -68 36.5t-29 96.5 v483q0 62 29 95.5t68 33.5q26 0 48 -13.5t35 -38t13 -60.5v-500z" />
<glyph unicode="p" horiz-adv-x="1339" d="M49 1290v-291q64 -22 64 -176v-807q0 -65 -10.5 -102.5t-53.5 -58.5v-322h613v322q-43 10 -54.5 61t-11.5 147q107 -86 289 -86q38 0 82 7q199 32 253 153.5t54 282.5v579q0 159 -92 241.5t-262 82.5q-100 0 -175.5 -27t-148.5 -71v65h-547zM596 936q59 27 98 27 q97 0 97 -140v-340q0 -149 -101 -149q-41 0 -94 20v582z" />
<glyph unicode="q" horiz-adv-x="1307" d="M49 371q0 -126 37 -206.5t96 -124.5t119 -58.5t119 -14.5q97 0 179 34.5t126 78.5q6 -52 6 -88q0 -57 -15.5 -91t-53.5 -63v-305h595v305q-31 9 -44 23.5t-16 36t-3 69.5v1323h-469v-65q-42 45 -132 71.5t-173 26.5q-199 0 -285 -98.5t-86 -241.5v-612zM725 338 q-40 -19 -72 -19q-53 0 -87 40t-34 108v371q0 60 27.5 93.5t73.5 33.5q36 0 92 -29v-598z" />
<glyph unicode="r" horiz-adv-x="887" d="M49 1290v-291q64 -66 64 -145v-403q0 -60 -10.5 -94t-53.5 -66v-291h613v291q-82 26 -82 160v243q0 78 60.5 123t145.5 45q37 0 68 -8v469q-40 6 -72 6q-77 0 -115.5 -29t-86.5 -90v80h-531z" />
<glyph unicode="s" horiz-adv-x="1225" d="M63 500v-338q27 -38 123 -85t168 -61q143 -39 293 -39q147 0 273.5 41t204 131t77.5 230q0 47 -8 88q-22 124 -95.5 194t-156 95.5t-217.5 50.5q-76 18 -118.5 32.5t-66.5 40.5t-24 72q0 34 28 54t64 20q41 0 71 -27t30 -79v-82h452v307q-104 121 -387 178 q-85 16 -182 16q-220 0 -350 -65q-100 -50 -155.5 -148t-55.5 -208q0 -105 52.5 -191t158.5 -131q41 -24 179 -48.5t214.5 -52.5t89.5 -92q4 -20 4 -26q0 -41 -27.5 -64.5t-64.5 -23.5q-43 0 -74 30.5t-31 83.5v97h-469z" />
<glyph unicode="t" horiz-adv-x="774" d="M16 999h64v-677q0 -158 91 -248t249 -90q209 0 321 32v291q-63 0 -98 20t-49 59.5t-14 96.5v516h161v291h-161v387l-500 -129v-258h-64v-291z" />
<glyph unicode="u" horiz-adv-x="1339" d="M16 1290v-274q37 -24 50.5 -55t13.5 -91v-483q0 -143 33 -230t114.5 -130t223.5 -43q99 0 179.5 25.5t110.5 53.5v-63h566v291q-22 13 -38 36.5t-22 53.5t-6 70v839h-563v-274q34 -23 48.5 -51.5t14.5 -77.5v-533q-45 -24 -75 -24q-52 0 -69 64.5t-17 185.5v548 q0 51 -11.5 94.5t-36.5 67.5h-516z" />
<glyph unicode="v" horiz-adv-x="1257" d="M16 1290v-291q32 -21 48.5 -59t31.5 -102l242 -838h582l258 870q14 57 30.5 87.5t48.5 41.5v291h-548v-291q53 -21 53 -67q0 -19 -21 -94l-79 -322l-50 193q-41 178 -41 215q0 54 41 75v291h-596z" />
<glyph unicode="w" horiz-adv-x="1870" d="M16 1290v-291q47 -23 75.5 -84.5t53.5 -189.5l193 -725h469l145 483l113 -483h483l146 532q58 215 80.5 289t43 110.5t52.5 51.5v307h-531v-291q54 -15 54 -67q0 -32 -23 -109l-47 -178l-178 645h-322l-178 -645l-33 162q-14 66 -14 102q0 22 6 36.5t21 30t20 23.5v291 h-629z" />
<glyph unicode="x" horiz-adv-x="1225" d="M16 1290v-307q103 -26 209 -176l113 -145l-145 -195q-82 -98 -113.5 -131.5t-63.5 -44.5v-291h467v80q0 97 16 146t66 112q57 -57 77 -110t20 -132v-96h563v291q-30 10 -53.5 35t-75.5 94l-176 242l161 192q23 36 64 77t80 68v291h-500v-96q0 -65 -13.5 -110.5 t-66.5 -100.5q-44 57 -54.5 101.5t-10.5 109.5v96h-564z" />
<glyph unicode="y" horiz-adv-x="1257" d="M16 1290v-291q28 -16 49 -44t36.5 -66t32.5 -89l44 -138l242 -678q-34 -129 -195 -129v-291q46 -21 110 -33t124 -12q103 0 186 30q79 31 124.5 71.5t76.5 109.5t74 207l258 804q18 60 31.5 109.5t32 88t48.5 60.5v291h-549v-291q52 -8 52 -61q0 -18 -5.5 -43t-16 -65 t-13.5 -56l-49 -209l-64 209q-3 16 -13.5 56t-16 64.5t-5.5 43.5q0 53 52 61v291h-646z" />
<glyph unicode="z" horiz-adv-x="1225" d="M33 1290v-483h370v80q0 58 17.5 75t58.5 17h39q39 0 62 4l-547 -676v-307h1177v500h-372v-80q0 -71 -21.5 -94t-71.5 -23q-12 0 -45 2t-55 2l565 692v291h-1177z" />
<glyph unicode="{" horiz-adv-x="838" d="M63 678q97 -40 138 -84t41 -143v-564q0 -110 49 -170.5t149.5 -84t268.5 -23.5q47 0 161 4q-87 23 -131.5 86.5t-44.5 122.5v549q0 146 -49.5 213t-144.5 94q96 14 145 70.5t49 203.5v451q0 129 42 217t134 121q-126 4 -178 4q-161 0 -256.5 -25.5t-144.5 -96t-49 -204.5 v-516q0 -75 -40 -139t-139 -86z" />
<glyph unicode="|" horiz-adv-x="410" d="M29 1769h377v-1769h-377v1769z" />
<glyph unicode="}" horiz-adv-x="838" d="M338 678q-98 -24 -145.5 -102t-47.5 -222v-434q0 -121 -44 -199t-117 -92q164 -16 249 -16q138 0 203 33q73 32 106 67t43.5 86t10.5 138v466q0 128 38.5 182.5t139.5 92.5q-81 32 -129.5 91.5t-48.5 197.5v501q2 15 2 45q0 106 -69 165t-238 79q-228 0 -307 -16 q97 -40 130 -96.5t33 -131.5q0 -26 -0.5 -42t-1.5 -35v-453q0 -131 54.5 -204t138.5 -101z" />
<glyph unicode="~" horiz-adv-x="819" d="M0 1460q91 90 159.5 128t119.5 38q37 0 66.5 -14t68.5 -40t59.5 -36t52.5 -10q93 0 232 143l82 -141q-179 -170 -297 -170q-34 0 -61.5 11t-66 34t-66 35t-56.5 12q-87 0 -215 -131z" />
<glyph horiz-adv-x="0" />
<glyph horiz-adv-x="0" />
<glyph horiz-adv-x="0" />
<glyph horiz-adv-x="0" />
<glyph unicode="&#xa0;" />
<glyph unicode="&#xa1;" horiz-adv-x="887" d="M338 1020h242l161 -936q4 -50 4 -76q0 -74 -24 -127.5t-90 -86t-180 -32.5q-160 0 -219.5 67.5t-59.5 174.5q0 42 6 80zM209 1343q0 100 68.5 171t173.5 71q106 0 174.5 -70.5t68.5 -171.5q0 -61 -33.5 -114t-90 -83t-119.5 -30q-101 0 -171.5 61t-70.5 166z" />
<glyph unicode="&#xa2;" horiz-adv-x="1257" d="M1044 1245q93 -37 150 -100v-338h-387l-240 -442q5 -45 23 -68t55 -23q56 0 76 40.5t20 121.5v113h453v-404q-45 -45 -111 -80t-140.5 -57t-145.5 -32.5t-138 -10.5q-43 0 -63 2q-138 11 -225 33l-174 -319l-181 81l177 332q-113 106 -113 309v467q0 153 48 247.5 t167.5 142t333.5 47.5q121 0 200 -11l170 318l197 -90zM680 1014q-6 2 -18 2q-57 0 -77 -40t-20 -122v-57z" />
<glyph unicode="&#xa3;" horiz-adv-x="1386" d="M1049 1237q0 61 -26 110.5t-70 78t-91 28.5q-86 0 -146.5 -99t-60.5 -311q295 0 295 5v-304h-297v-350h686v-395h-1290v307q62 26 66 117q0 41 -2 59v262h-318v304l318 -2q0 193 56 341.5t152.5 245t215 144t247.5 47.5q116 0 225.5 -39.5t194.5 -114t136.5 -186 t52.5 -248.5h-344z" />
<glyph unicode="&#xa4;" horiz-adv-x="1126" d="M211 768q-51 48 -80 107t-29 120q0 92 25.5 164.5t85.5 130.5l-129 109l135 106l139 -123q103 38 224 56q143 0 237 -37l107 115l108 -97l-92 -98q100 -98 117 -289q0 -114 -72 -209l121 -106l-84 -99l-129 107q-120 -98 -277 -98q-147 0 -270 53l-117 -121l-129 92z M598 793q69 0 132 34t101.5 90.5t38.5 120.5q-3 84 -51 139.5t-117 80t-127 24.5q-77 0 -143.5 -39.5t-105.5 -101.5t-39 -127q0 -48 37 -99.5t107.5 -86.5t166.5 -35z" />
<glyph unicode="&#xa5;" horiz-adv-x="1419" d="M1024 762h393q4 0 4 -55q0 -19 -4 -19h-430l-4 -10v-227q0 -39 6 -65.5t21.5 -46t38.5 -32.5v-307h-678v307q45 33 55 60.5t10 83.5v211l-12 26h-424v74h387l-86 172h-301v65h268l-106 211q-10 19 -38.5 86.5t-54 108t-53.5 47.5v305h629v-241q0 -76 21.5 -134.5 t74.5 -171.5q97 143 97 306v241h565v-305q-78 -78 -129 -178l-133 -275h284v-65h-317z" />
<glyph unicode="&#xa6;" horiz-adv-x="410" d="M406 1040h-377v1049h377v-1049zM406 737v-1097h-377v1097h377z" />
<glyph unicode="&#xa7;" horiz-adv-x="1229" d="M1055 596q51 -36 87.5 -93.5t51.5 -137.5q8 -41 8 -89q0 -140 -77.5 -229.5t-204 -130.5t-273.5 -41q-133 0 -258.5 30t-211.5 73t-114 81v338h469v-96q0 -54 31 -84.5t74 -30.5q38 0 65 24t27 64q-5 68 -68.5 109.5t-143 60t-171 31.5t-104.5 19q-106 45 -158.5 131 t-52.5 190q0 46 12 99.5t46 113t97 109.5q-78 51 -116.5 128t-38.5 165q0 110 55.5 208t155.5 148q52 26 139.5 46.5t200.5 20.5q91 0 192 -18q283 -57 387 -178v-307h-452v82q0 52 -30 79t-71 27q-35 0 -63.5 -20t-28.5 -54q0 -46 24 -72t66.5 -40.5t118.5 -32.5 q177 -34 277 -79t150 -128t50 -221q0 -192 -147 -295zM535 897q4 -44 34 -70t68 -26q46 0 72 30q-6 46 -34.5 69.5t-66.5 23.5q-43 0 -73 -27z" />
<glyph unicode="&#xa8;" horiz-adv-x="819" d="M184 1841q68 0 107 44.5t39 101.5t-38.5 101t-107.5 44q-68 0 -106.5 -41.5t-38.5 -103.5q0 -59 41 -102.5t104 -43.5zM631 1841q45 0 78 21.5t50 55t17 69.5q0 57 -38.5 101t-106.5 44q-71 0 -108.5 -41.5t-37.5 -103.5q0 -59 41 -102.5t105 -43.5z" />
<glyph unicode="&#xa9;" horiz-adv-x="1278" d="M406 1032v225q0 73 23 118t82 68t159 23q207 0 272 -77v-160h-217v37q0 30 -7 45.5t-32 15.5q-27 0 -36 -20t-9 -58v-192q0 -44 5.5 -64t31.5 -20q27 0 37 18.5t10 57.5v55h217v-195q-43 -42 -116.5 -64t-139.5 -22h-33q-112 8 -179.5 50t-67.5 159zM293 1575l-2 -838 h737v838h-735zM291 1755h735l219 -176v-846l-217 -209h-737l-268 209v838z" />
<glyph unicode="&#xaa;" horiz-adv-x="522" d="M39 1694q89 63 240 63q84 0 147 -37t63 -116v-207q0 -13 3 -23q4 -10 11 -16l13 -12v-117h-213v39q-7 -4 -29.5 -19.5t-47.5 -23.5t-58 -8q-146 0 -156 153q0 60 42 99.5t93 50.5l144 45v26q0 38 -27 43q-45 0 -45 -69h-180v129zM291 1384v58q-19 -3 -48.5 -15t-29.5 -36 q0 -35 27 -35q14 0 29 8.5t22 19.5zM4 1169h520v-127h-520v127z" />
<glyph unicode="&#xab;" horiz-adv-x="1843" d="M-8 803l803 368l70 -158q42 -95 44 -95l-655 -295l680 -336l-139 -262l-803 434v344zM852 786l803 369l70 -159q42 -96 44 -95l-655 -295l680 -336l-139 -262l-803 434v344z" />
<glyph unicode="&#xac;" horiz-adv-x="1679" d="M8 1081h1598v-565h-287v303h-1311v262z" />
<glyph unicode="&#xad;" horiz-adv-x="819" d="M4 1008h793v-279h-793v279z" />
<glyph unicode="&#xae;" horiz-adv-x="1278" d="M442 1405h258q189 0 189 -150q0 -64 -20.5 -91.5t-63.5 -43.5q48 -7 60 -31.5t12 -97.5q0 -41 20 -51v-98h-180q-13 41 -17 76t-4 94q0 27 -14.5 37t-42.5 16v-70q0 -49 20 -55v-98h-217v98q21 14 21 68v231q0 32 -4.5 42t-16.5 15v109zM639 1286v-112q34 0 51 10t17 45 t-15 46t-53 11zM307 1542v-837h740v837h-740zM307 1722h737l220 -178v-844l-217 -208h-740l-266 208v836z" />
<glyph unicode="&#xaf;" horiz-adv-x="1372" d="M6 1765h1327v-278h-1327v278z" />
<glyph unicode="&#xb0;" horiz-adv-x="494" d="M0 1571q0 93 61.5 145t161.5 62q101 0 163.5 -53t66.5 -138q0 -67 -70.5 -125t-140.5 -63q-96 0 -169 49.5t-73 122.5zM86 1579q0 -44 44.5 -73t100.5 -29q42 3 84.5 38t42.5 76q-3 51 -39.5 82t-97.5 31q-48 -2 -91.5 -36t-43.5 -89z" />
<glyph unicode="&#xb1;" horiz-adv-x="1235" d="M39 1141h485v411h221v-405h498v-203h-498v-418h-215v418h-491v197zM39 373h1210v-209h-1210v209z" />
<glyph unicode="&#xb2;" horiz-adv-x="588" d="M246 1495v45q0 66 51 66q22 0 33.5 -17t11.5 -41q0 -22 -12 -39q-9 -12 -32.5 -25t-78.5 -39t-90 -46q-59 -35 -81.5 -77.5t-22.5 -96.5v-181h524v220h-207q-4 -48 -25 -63t-59 -15h-20q0 57 53 78q150 69 180 90q94 63 94 184q0 80 -45.5 141t-126.5 68q-42 6 -90 6 q-182 0 -270 -76v-182h213z" />
<glyph unicode="&#xb3;" horiz-adv-x="555" d="M25 1683v-167h206v45q0 20 13.5 34.5t29.5 14.5q36 0 50 -49v-19q0 -65 -93 -65h-63v-136h78q41 0 61.5 -24.5t20.5 -59.5q0 -46 -31 -65q-16 -4 -23 -4q-43 0 -43 57v58h-206v-193q46 -34 117.5 -56t140.5 -22q107 0 164 31.5t76.5 73.5t25.5 100q0 62 -18.5 107 t-79.5 75q55 18 72.5 52t17.5 102q-5 188 -262 188q-71 0 -141.5 -21t-112.5 -57z" />
<glyph unicode="&#xb4;" horiz-adv-x="563" d="M543 1774h-355l-112 -338h241z" />
<glyph unicode="&#xb5;" horiz-adv-x="1339" d="M16 1290h516q25 -24 36.5 -67.5t11.5 -94.5v-548q0 -121 17 -185.5t69 -64.5q30 0 75 24v533q0 49 -14 77.5t-49 51.5v274h563v-839q0 -40 6 -70t22 -53.5t38 -36.5v-291h-566v63q-31 -29 -107 -54t-175 -25v-353h-377l-2 1239q0 60 -13.5 91t-50.5 55v274z" />
<glyph unicode="&#xb6;" horiz-adv-x="1307" d="M909 1599v-1605h-247v305q38 29 53.5 63t15.5 91l-2 524q-31 -35 -111.5 -58.5t-173.5 -23.5q-111 0 -212.5 36t-166.5 119t-65 214v163q0 60 24 120t74 107t128.5 74t183.5 27h827v-1761h-197v1605h-131z" />
<glyph unicode="&#xb8;" d="M274 -385q-120 50 -120 174q0 42 18 96q19 52 65.5 79.5t110.5 27.5q62 0 117 -23q162 -62 162 -202q0 -50 -17 -107q-47 -159 -133.5 -234t-200.5 -75q-66 0 -142 25t-158.5 74.5t-159.5 113.5l57 61q211 -119 309 -119q92 0 92 109z" />
<glyph unicode="&#xb9;" horiz-adv-x="375" d="M51 1747v-129q27 -6 27 -51v-342q0 -19 -5 -31.5t-22 -19.5v-130h273v130q-27 12 -27 51v522h-246z" />
<glyph unicode="&#xba;" horiz-adv-x="504" d="M20 1409v180q0 93 51 130.5t181 37.5q131 0 181 -35.5t50 -132.5v-192q0 -105 -53.5 -139.5t-177.5 -34.5q-85 0 -134 14.5t-73.5 54.5t-24.5 117zM291 1397v200q0 22 -11.5 33.5t-27.5 11.5q-15 0 -27 -13.5t-12 -39.5v-192q0 -25 12 -39.5t27 -14.5t27 14.5t12 39.5z M4 1167h504v-125h-504v125z" />
<glyph unicode="&#xbb;" horiz-adv-x="1843" d="M1794 803v-344l-803 -434l-139 262l680 336l-655 295q3 0 45 95l69 158zM934 786v-344l-803 -434l-139 262l680 336l-656 295q3 -1 45 95l70 159z" />
<glyph unicode="&#xbc;" horiz-adv-x="922" d="M240 2601v-193q41 -10 41 -77v-514q0 -29 -6.5 -47t-34.5 -31v-193h440v193q-43 20 -43 78v784h-397zM10 1219v163h881v-163h-881zM10 502v-250h451q0 -50 -64 -78v-174h463v184q-43 25 -43 68h74v223h-74v580h-407zM461 475h-158l158 211v-211z" />
<glyph unicode="&#xbd;" horiz-adv-x="954" d="M256 2607v-192q41 -11 41 -78v-514q0 -29 -6.5 -47t-34.5 -31v-193h440v193q-43 20 -43 78v784h-397zM41 1225v164h877v-164h-877zM397 678v67q0 97 84 97q36 0 56 -24.5t20 -59.5t-22 -62q-17 -20 -60 -41t-135 -61.5t-131 -61.5q-93 -53 -130.5 -117t-37.5 -145v-270 h850v330h-336q-6 -76 -39 -96.5t-96 -20.5h-33q0 82 84 117l73 32l84 36q48 21 76 34.5t62 32.5q75 47 113.5 119t38.5 155q0 118 -75 210.5t-204 105.5q-70 6 -145 6q-136 0 -251 -27t-192 -86v-270h346z" />
<glyph unicode="&#xbe;" horiz-adv-x="928" d="M51 2505v-252h336v67q0 33 21.5 52.5t48.5 19.5q63 0 78 -72q2 -10 2 -28q0 -97 -150 -97h-104v-204h125q68 0 102.5 -37t34.5 -86q0 -32 -14.5 -59.5t-38.5 -39.5q-17 -8 -35 -8q-30 0 -50 22t-20 62v87h-336v-290q48 -34 116.5 -59.5t148.5 -41t155 -15.5 q133 0 219.5 29t130 75t60 98.5t20.5 108.5q0 95 -29.5 160.5t-128.5 109.5q91 29 119.5 80t28.5 154q-7 164 -128.5 221t-301.5 57q-111 0 -230 -32.5t-180 -81.5zM10 1219v163h918v-163h-918zM10 502v-250h451q0 -50 -64 -78v-174h463v184q-43 25 -43 68h74v223h-74v580 h-407zM461 475h-158l158 211v-211z" />
<glyph unicode="&#xbf;" horiz-adv-x="1419" d="M80 -250q106 -67 192 -106t201.5 -62.5t267.5 -23.5q229 0 419 109t210 358q1 11 1.5 19.5t0.5 23.5q0 127 -40.5 219.5t-100 149.5t-135.5 104q-15 10 -68 35.5t-89 52.5t-60.5 73.5t-24.5 112.5h-483v-258q0 -63 29 -110t76 -83q48 -38 114 -76l151 -85 q29 -14 52.5 -59t23.5 -89q0 -83 -76 -110q-15 -6 -32 -6q-45 0 -79 32.5t-34 102.5v129h-516v-453zM403 1139q0 -62 29.5 -115.5t82 -83t114.5 -29.5q101 0 171 61.5t70 166.5q0 71 -33 125.5t-88.5 85t-119.5 30.5q-62 0 -114.5 -30t-82 -85.5t-29.5 -125.5z" />
<glyph unicode="&#xc0;" horiz-adv-x="1495" d="M1112 1757l242 -1274q22 -128 98 -176v-307h-694v307q31 23 45 46.5t17 48t3 65.5h-274q0 -60 10.5 -93.5t52.5 -66.5v-307h-596v322q37 39 52.5 72t27.5 106l226 1257h790zM758 807l-80 516l-82 -516h162zM358 2257l226 -338h241l-112 338h-355z" />
<glyph unicode="&#xc1;" horiz-adv-x="1495" d="M1112 1757l242 -1274q22 -128 98 -176v-307h-694v307q31 23 45 46.5t17 48t3 65.5h-274q0 -60 10.5 -93.5t52.5 -66.5v-307h-596v322q37 39 52.5 72t27.5 106l226 1257h790zM758 807l-80 516l-82 -516h162zM1059 2249h-354l-113 -338h242z" />
<glyph unicode="&#xc2;" horiz-adv-x="1495" d="M1112 1757l242 -1274q22 -128 98 -176v-307h-694v307q31 23 45 46.5t17 48t3 65.5h-274q0 -60 10.5 -93.5t52.5 -66.5v-307h-596v322q37 39 52.5 72t27.5 106l226 1257h790zM758 807l-80 516l-82 -516h162zM731 2200l385 -304l-82 -81l-303 237l-278 -229l-74 73z" />
<glyph unicode="&#xc3;" horiz-adv-x="1475" d="M1112 1757l242 -1274q22 -128 98 -176v-307h-694v307q31 23 45 46.5t17 48t3 65.5h-274q0 -60 10.5 -93.5t52.5 -66.5v-307h-596v322q37 39 52.5 72t27.5 106l226 1257h790zM758 807l-80 516l-82 -516h162zM295 1985q92 89 159.5 127t118.5 38q36 0 66.5 -14t69.5 -40 t59.5 -36t52.5 -10q93 0 232 143l82 -141q-179 -170 -297 -170q-34 0 -61.5 11t-66 34t-66 35t-56.5 12q-88 0 -215 -131z" />
<glyph unicode="&#xc4;" horiz-adv-x="1536" d="M1112 1757l242 -1274q22 -128 98 -176v-307h-694v307q31 23 45 46.5t17 48t3 65.5h-274q0 -60 10.5 -93.5t52.5 -66.5v-307h-596v322q37 39 52.5 72t27.5 106l226 1257h790zM758 807l-80 516l-82 -516h162zM492 1841q45 0 78 21.5t50 55t17 69.5q0 57 -38.5 101 t-106.5 44q-70 0 -108 -41t-38 -104q0 -59 41.5 -102.5t104.5 -43.5zM938 1841q45 0 78 21.5t50 55t17 69.5q0 57 -38.5 101t-106.5 44q-70 0 -107.5 -41.5t-37.5 -103.5q0 -60 40.5 -103t104.5 -43z" />
<glyph unicode="&#xc5;" horiz-adv-x="1475" d="M1112 1757l242 -1274q22 -128 98 -176v-307h-694v307q31 23 45 46.5t17 48t3 65.5h-274q0 -60 10.5 -93.5t52.5 -66.5v-307h-596v322q37 39 52.5 72t27.5 106l226 1257h790zM758 807l-80 516l-82 -516h162zM451 1980q0 93 61.5 145t161.5 62q101 0 162.5 -51.5 t66.5 -138.5q0 -67 -70 -124.5t-141 -64.5q-61 0 -117.5 22.5t-90 62.5t-33.5 87zM537 1989q0 -44 45 -73.5t100 -29.5q41 3 84 38.5t43 76.5q-3 51 -39.5 82t-97.5 31q-47 -2 -91 -36.5t-44 -88.5z" />
<glyph unicode="&#xc6;" horiz-adv-x="2068" d="M758 807l-80 516l-82 -516h162zM758 0v307q31 23 45 46.5t17 48t3 65.5h-274q0 -60 10.5 -93.5t52.5 -66.5v-307h-596v322q37 39 52.5 72t27.5 106l226 1257h1695v-612h-516v112q0 113 -192 113v-321h354v-340h-354v-338q82 0 125.5 18.5t55 45t11.5 65.5v129h516v-629 h-1259z" />
<glyph unicode="&#xc7;" horiz-adv-x="1393" d="M823 1112h547v500q-102 64 -212 103.5t-228 57t-268 17.5q-151 0 -264.5 -34t-186.5 -101t-110.5 -170t-37.5 -244v-725q0 -274 180.5 -403t481.5 -129q141 0 274 22t232 65.5t139 106.5v563h-547v-274q0 -59 -26.5 -90t-63.5 -31q-41 0 -72.5 33.5t-31.5 87.5v807 q0 66 31.5 101.5t72.5 35.5q37 0 63.5 -27.5t26.5 -76.5v-195zM676 -242q-72 31 -72 105q0 27 10 57q25 64 107 64q34 0 70 -13q98 -39 98 -121q0 -32 -12 -65q-55 -186 -199 -186q-121 0 -277 129l35 36q128 -71 182 -71q61 0 58 65z" />
<glyph unicode="&#xc8;" horiz-adv-x="1434" d="M80 1757h1323v-612h-516v112q0 113 -193 113v-321h355v-340h-355v-338q82 0 125.5 18.5t55.5 45t12 65.5v129h516v-629h-1323v322q29 15 39 41t12 65q0 37 -2 55v824q0 96 -49 145v305zM432 2224l225 -338h242l-113 338h-354z" />
<glyph unicode="&#xc9;" horiz-adv-x="1454" d="M80 1757h1323v-612h-516v112q0 113 -193 113v-321h355v-340h-355v-338q82 0 125.5 18.5t55.5 45t12 65.5v129h516v-629h-1323v322q29 15 39 41t12 65q0 37 -2 55v824q0 96 -49 145v305zM1124 2191h-354l-113 -338h242z" />
<glyph unicode="&#xca;" horiz-adv-x="1454" d="M80 1757h1323v-612h-516v112q0 113 -193 113v-321h355v-340h-355v-338q82 0 125.5 18.5t55.5 45t12 65.5v129h516v-629h-1323v322q29 15 39 41t12 65q0 37 -2 55v824q0 96 -49 145v305zM782 2200l385 -304l-82 -81l-303 237l-278 -229l-74 73z" />
<glyph unicode="&#xcb;" horiz-adv-x="1495" d="M80 1757h1323v-612h-516v112q0 113 -193 113v-321h355v-340h-355v-338q82 0 125.5 18.5t55.5 45t12 65.5v129h516v-629h-1323v322q29 15 39 41t12 65q0 37 -2 55v824q0 96 -49 145v305zM569 1841q68 0 107 44.5t39 101.5t-38.5 101t-107.5 44q-68 0 -106.5 -41.5 t-38.5 -103.5q0 -59 41 -102.5t104 -43.5zM1016 1841q45 0 78 21.5t50 55t17 69.5q0 57 -38.5 101t-106.5 44q-69 0 -107.5 -41.5t-38.5 -103.5q0 -59 41 -102.5t105 -43.5z" />
<glyph unicode="&#xcc;" horiz-adv-x="819" d="M63 1757h695v-305q-42 -32 -53 -72.5t-11 -105.5v-774q0 -61 5.5 -95t16.5 -50.5t42 -47.5v-307h-695v307q68 51 68 176l-8 795q0 57 -11 104.5t-49 69.5v305zM55 2208l226 -338h241l-112 338h-355z" />
<glyph unicode="&#xcd;" horiz-adv-x="819" d="M63 1757h695v-305q-42 -32 -53 -72.5t-11 -105.5v-774q0 -61 5.5 -95t16.5 -50.5t42 -47.5v-307h-695v307q68 51 68 176l-8 795q0 57 -11 104.5t-49 69.5v305zM764 2191h-354l-113 -338h242z" />
<glyph unicode="&#xce;" horiz-adv-x="809" d="M63 1757h695v-305q-42 -32 -53 -72.5t-11 -105.5v-774q0 -61 5.5 -95t16.5 -50.5t42 -47.5v-307h-695v307q68 51 68 176l-8 795q0 57 -11 104.5t-49 69.5v305zM424 2200l385 -304l-82 -81l-303 237l-279 -229l-73 73z" />
<glyph unicode="&#xcf;" horiz-adv-x="819" d="M63 1757h695v-305q-42 -32 -53 -72.5t-11 -105.5v-774q0 -61 5.5 -95t16.5 -50.5t42 -47.5v-307h-695v307q68 51 68 176l-8 795q0 57 -11 104.5t-49 69.5v305zM184 1882q68 0 107 44.5t39 101.5t-38.5 101t-107.5 44q-68 0 -106.5 -41.5t-38.5 -103.5q0 -59 41 -102.5 t104 -43.5zM631 1882q45 0 78 21.5t50 55t17 69.5q0 57 -38.5 101t-106.5 44q-71 0 -108.5 -41.5t-37.5 -103.5q0 -59 41 -102.5t105 -43.5z" />
<glyph unicode="&#xd0;" horiz-adv-x="1679" d="M309 1073v217q0 48 -19 91.5t-63 54.5v321h824q246 0 413.5 -102t167.5 -414v-692q0 -151 -44.5 -271.5t-169.5 -199t-351 -78.5h-840v322q57 22 69.5 55.5t12.5 105.5v246h-252v344h252zM872 729v-358q15 -2 41 -2q88 0 121 36t33 111v725q0 80 -44.5 104.5t-150.5 24.5 v-297h103v-344h-103z" />
<glyph unicode="&#xd1;" horiz-adv-x="1536" d="M96 1757h598l305 -790v307q0 90 -7.5 121.5t-39.5 56.5v305h564v-305q-30 -29 -42.5 -48t-17 -38.5t-4.5 -46.5v-45v-1274h-532l-340 791v-275q0 -76 10.5 -115t54.5 -63v-338h-549v322q40 23 52 53t14 82v59v741q0 102 -12 137.5t-54 57.5v305zM393 1976 q91 90 159.5 128t119.5 38q37 0 66.5 -14t67 -39t60 -36t54.5 -11q93 0 231 143l82 -141q-178 -170 -297 -170q-34 0 -61.5 11t-66 34t-66 35t-56.5 12q-87 0 -215 -131z" />
<glyph unicode="&#xd2;" horiz-adv-x="1475" d="M80 532q0 -188 69.5 -313t219 -188.5t389.5 -63.5q180 0 304 33t199 97.5t108.5 159.5t33.5 226v791q0 270 -149 393t-496 123q-174 0 -302.5 -33t-210.5 -99t-123.5 -166t-41.5 -235v-725zM854 516q0 -80 -20 -121t-76 -41q-64 0 -88.5 45t-24.5 117v741q0 74 27 110 t86 36q66 0 81 -30.5t15 -115.5v-741zM432 2216l225 -338h242l-113 338h-354z" />
<glyph unicode="&#xd3;" horiz-adv-x="1475" d="M80 532q0 -188 69.5 -313t219 -188.5t389.5 -63.5q180 0 304 33t199 97.5t108.5 159.5t33.5 226v791q0 270 -149 393t-496 123q-174 0 -302.5 -33t-210.5 -99t-123.5 -166t-41.5 -235v-725zM854 516q0 -80 -20 -121t-76 -41q-64 0 -88.5 45t-24.5 117v741q0 74 27 110 t86 36q66 0 81 -30.5t15 -115.5v-741zM1067 2216h-354l-113 -338h242z" />
<glyph unicode="&#xd4;" horiz-adv-x="1464" d="M80 532q0 -188 69.5 -313t219 -188.5t389.5 -63.5q180 0 304 33t199 97.5t108.5 159.5t33.5 226v791q0 270 -149 393t-496 123q-174 0 -302.5 -33t-210.5 -99t-123.5 -166t-41.5 -235v-725zM854 516q0 -80 -20 -121t-76 -41q-64 0 -88.5 45t-24.5 117v741q0 74 27 110 t86 36q66 0 81 -30.5t15 -115.5v-741zM772 2200l385 -304l-82 -81l-303 237l-278 -229l-74 73z" />
<glyph unicode="&#xd5;" horiz-adv-x="1475" d="M80 532q0 -188 69.5 -313t219 -188.5t389.5 -63.5q180 0 304 33t199 97.5t108.5 159.5t33.5 226v791q0 270 -149 393t-496 123q-174 0 -302.5 -33t-210.5 -99t-123.5 -166t-41.5 -235v-725zM854 516q0 -80 -20 -121t-76 -41q-64 0 -88.5 45t-24.5 117v741q0 74 27 110 t86 36q66 0 81 -30.5t15 -115.5v-741zM401 1993q91 90 159.5 128t119.5 38q36 0 64.5 -13t69.5 -40.5t61.5 -37.5t52.5 -10q43 0 100 34t131 110l82 -142q-178 -170 -297 -170q-34 0 -61.5 11t-66 34t-66 35t-56.5 12q-88 0 -215 -131z" />
<glyph unicode="&#xd6;" horiz-adv-x="1495" d="M80 532q0 -188 69.5 -313t219 -188.5t389.5 -63.5q180 0 304 33t199 97.5t108.5 159.5t33.5 226v791q0 270 -149 393t-496 123q-174 0 -302.5 -33t-210.5 -99t-123.5 -166t-41.5 -235v-725zM854 516q0 -80 -20 -121t-76 -41q-64 0 -88.5 45t-24.5 117v741q0 74 27 110 t86 36q66 0 81 -30.5t15 -115.5v-741zM561 1841q68 0 107 44.5t39 101.5t-38.5 101t-107.5 44q-68 0 -106.5 -41.5t-38.5 -103.5q0 -59 41 -102.5t104 -43.5zM1008 1841q45 0 78 21.5t50 55t17 69.5q0 57 -38.5 101t-106.5 44q-71 0 -108.5 -41.5t-37.5 -103.5 q0 -59 41 -102.5t105 -43.5z" />
<glyph unicode="&#xd7;" horiz-adv-x="1839" d="M111 1139l344 278l475 -434l516 410l311 -287l-508 -418l434 -409l-352 -312l-450 402l-467 -402l-336 320l491 409z" />
<glyph unicode="&#xd8;" horiz-adv-x="1468" d="M131 256q-51 114 -51 276v725q0 135 41.5 235t123.5 166t210.5 99t302.5 33q147 0 264 -23l223 379l344 -147l-254 -426q68 -116 68 -299v-791q0 -131 -33.5 -226t-108.5 -159.5t-198.5 -97.5t-304.5 -33q-206 0 -350 49l-170 -286l-312 180zM645 1128l158 269 q-18 6 -45 6q-59 0 -86 -36t-27 -110v-129zM854 766l-199 -334q23 -78 103 -78q55 0 75.5 41t20.5 121v250z" />
<glyph unicode="&#xd9;" horiz-adv-x="1495" d="M63 1757h678v-321q-41 -21 -52 -67t-11 -128v-676q0 -80 5 -120t29 -65t79 -26q63 0 79.5 45.5t16.5 165.5v660q0 117 -10 157t-54 54v321h660v-321q-37 -23 -54.5 -60t-21.5 -77.5t-4 -104.5v-662q0 -261 -128 -416t-497 -155q-138 0 -249.5 22t-203 85t-144 179.5 t-52.5 301.5v676q0 100 -11.5 142.5t-54.5 68.5v321zM449 2200l225 -338h241l-112 338h-354z" />
<glyph unicode="&#xda;" horiz-adv-x="1536" d="M63 1757h678v-321q-41 -21 -52 -67t-11 -128v-676q0 -80 5 -120t29 -65t79 -26q63 0 79.5 45.5t16.5 165.5v660q0 117 -10 157t-54 54v321h660v-321q-37 -23 -54.5 -60t-21.5 -77.5t-4 -104.5v-662q0 -261 -128 -416t-497 -155q-138 0 -249.5 22t-203 85t-144 179.5 t-52.5 301.5v676q0 100 -11.5 142.5t-54.5 68.5v321zM1124 2208h-354l-113 -338h242z" />
<glyph unicode="&#xdb;" horiz-adv-x="1495" d="M63 1757h678v-321q-41 -21 -52 -67t-11 -128v-676q0 -80 5 -120t29 -65t79 -26q63 0 79.5 45.5t16.5 165.5v660q0 117 -10 157t-54 54v321h660v-321q-37 -23 -54.5 -60t-21.5 -77.5t-4 -104.5v-662q0 -261 -128 -416t-497 -155q-138 0 -249.5 22t-203 85t-144 179.5 t-52.5 301.5v676q0 100 -11.5 142.5t-54.5 68.5v321zM793 2200l385 -304l-82 -81l-303 237l-279 -229l-74 73z" />
<glyph unicode="&#xdc;" horiz-adv-x="1516" d="M63 1757h678v-321q-41 -21 -52 -67t-11 -128v-676q0 -80 5 -120t29 -65t79 -26q63 0 79.5 45.5t16.5 165.5v660q0 117 -10 157t-54 54v321h660v-321q-37 -23 -54.5 -60t-21.5 -77.5t-4 -104.5v-662q0 -261 -128 -416t-497 -155q-138 0 -249.5 22t-203 85t-144 179.5 t-52.5 301.5v676q0 100 -11.5 142.5t-54.5 68.5v321zM578 1841q45 0 78 21.5t50 55t17 69.5q0 57 -38.5 101t-106.5 44q-70 0 -108 -41t-38 -104q0 -59 41.5 -102.5t104.5 -43.5zM1024 1841q45 0 78 21.5t50 55t17 69.5q0 57 -38.5 101t-106.5 44q-70 0 -107.5 -41.5 t-37.5 -103.5q0 -60 40.5 -103t104.5 -43z" />
<glyph unicode="&#xdd;" horiz-adv-x="1434" d="M16 1757h629v-241q0 -76 21.5 -134.5t74.5 -171.5q97 143 97 306v241h565v-305q-78 -78 -129 -178l-291 -596v-227q0 -39 6 -65.5t21.5 -46t38.5 -32.5v-307h-678v307q45 33 55 60.5t10 83.5v211l-274 548q-10 19 -38.5 86.5t-54 108t-53.5 47.5v305zM1100 2216h-355 l-112 -338h241z" />
<glyph unicode="&#xde;" horiz-adv-x="1339" d="M41 1835h547l8 -303q73 44 148.5 71t175.5 27q85 0 149.5 -20t111 -61t70 -101.5t23.5 -140.5v-580q0 -161 -54 -282.5t-253 -153.5q-37 -6 -82 -6q-184 0 -289 86q0 -97 11.5 -148t54.5 -61v-223h-613v223q43 23 53.5 60t10.5 102l-7 1122q0 82 -16 138t-49 67v184z M596 1243v-581q52 -21 94 -21q52 0 76.5 35.5t24.5 114.5v339q0 140 -97 140q-42 0 -98 -27z" />
<glyph unicode="&#xdf;" horiz-adv-x="1548" d="M694 1386v-321q83 0 168 33t141 83.5t56 96.5q0 50 -72 80.5t-233 30.5q-8 0 -26 -1zM795 0v371q157 7 231 43t74 90q0 39 -36.5 81t-97.5 77.5t-131.5 57t-140.5 21.5l2 -741h-616v322q56 22 69 62t13 116l-6 180q-4 121 -4 178q0 196 23.5 349.5t86.5 273.5 t185.5 194.5t310.5 81.5q86 4 131 4q174 0 301 -35t202.5 -131.5t75.5 -271.5q0 -105 -63.5 -194t-183 -146.5t-279.5 -73.5q125 -9 228.5 -43t177.5 -88t113.5 -120.5t39.5 -139.5q0 -138 -34 -235.5t-106.5 -160t-186 -92.5t-271.5 -30h-108z" />
<glyph unicode="&#xe0;" horiz-adv-x="1311" d="M96 1161v-323h453q0 86 25 132t88 46q39 -8 52 -35t13 -74q0 -22 -0.5 -36.5t-1.5 -32.5l-354 -113q-78 -16 -157 -63t-130 -124t-51 -184q11 -203 118 -295t269 -92q88 0 146 20q58 19 124 63l68 46v-96h532v291q-27 25 -37.5 35.5t-19 35t-8.5 58.5v516 q0 135 -78.5 222.5t-199.5 126t-253 38.5q-169 0 -322.5 -36.5t-275.5 -125.5zM725 387q-15 -23 -54 -45.5t-73 -22.5q-66 0 -66 84q0 61 72.5 91t120.5 38v-145zM342 1774l225 -338h242l-113 338h-354z" />
<glyph unicode="&#xe1;" horiz-adv-x="1311" d="M96 1161v-323h453q0 86 25 132t88 46q39 -8 52 -35t13 -74q0 -22 -0.5 -36.5t-1.5 -32.5l-354 -113q-78 -16 -157 -63t-130 -124t-51 -184q11 -203 118 -295t269 -92q88 0 146 20q58 19 124 63l68 46v-96h532v291q-27 25 -37.5 35.5t-19 35t-8.5 58.5v516 q0 135 -78.5 222.5t-199.5 126t-253 38.5q-169 0 -322.5 -36.5t-275.5 -125.5zM725 387q-15 -23 -54 -45.5t-73 -22.5q-66 0 -66 84q0 61 72.5 91t120.5 38v-145zM952 1774h-354l-113 -338h242z" />
<glyph unicode="&#xe2;" horiz-adv-x="1331" d="M96 1161v-323h453q0 86 25 132t88 46q39 -8 52 -35t13 -74q0 -22 -0.5 -36.5t-1.5 -32.5l-354 -113q-78 -16 -157 -63t-130 -124t-51 -184q11 -203 118 -295t269 -92q88 0 146 20q58 19 124 63l68 46v-96h532v291q-27 25 -37.5 35.5t-19 35t-8.5 58.5v516 q0 135 -78.5 222.5t-199.5 126t-253 38.5q-169 0 -322.5 -36.5t-275.5 -125.5zM725 387q-15 -23 -54 -45.5t-73 -22.5q-66 0 -66 84q0 61 72.5 91t120.5 38v-145zM690 1790l385 -303l-82 -82l-303 237l-278 -229l-74 74z" />
<glyph unicode="&#xe3;" horiz-adv-x="1311" d="M96 1161v-323h453q0 86 25 132t88 46q39 -8 52 -35t13 -74q0 -22 -0.5 -36.5t-1.5 -32.5l-354 -113q-78 -16 -157 -63t-130 -124t-51 -184q11 -203 118 -295t269 -92q88 0 146 20q58 19 124 63l68 46v-96h532v291q-27 25 -37.5 35.5t-19 35t-8.5 58.5v516 q0 135 -78.5 222.5t-199.5 126t-253 38.5q-169 0 -322.5 -36.5t-275.5 -125.5zM725 387q-15 -23 -54 -45.5t-73 -22.5q-66 0 -66 84q0 61 72.5 91t120.5 38v-145zM287 1460q91 90 159 128t119 38q36 0 66.5 -14t69.5 -40t59.5 -36t52.5 -10q93 0 231 143l82 -141 q-178 -170 -297 -170q-34 0 -61.5 11t-62.5 32.5t-65.5 35t-59.5 13.5q-87 0 -215 -131z" />
<glyph unicode="&#xe4;" horiz-adv-x="1331" d="M96 1161v-323h453q0 86 25 132t88 46q39 -8 52 -35t13 -74q0 -22 -0.5 -36.5t-1.5 -32.5l-354 -113q-78 -16 -157 -63t-130 -124t-51 -184q11 -203 118 -295t269 -92q88 0 146 20q58 19 124 63l68 46v-96h532v291q-27 25 -37.5 35.5t-19 35t-8.5 58.5v516 q0 135 -78.5 222.5t-199.5 126t-253 38.5q-169 0 -322.5 -36.5t-275.5 -125.5zM725 387q-15 -23 -54 -45.5t-73 -22.5q-66 0 -66 84q0 61 72.5 91t120.5 38v-145zM455 1407q66 0 105.5 44t39.5 101q0 58 -38.5 102t-106.5 44q-70 0 -108 -41t-38 -105q0 -37 19 -71t52 -54 t75 -20zM901 1407q67 0 106.5 44t39.5 101q0 58 -38.5 102t-107.5 44q-70 0 -107.5 -41.5t-37.5 -104.5q0 -60 40.5 -102.5t104.5 -42.5z" />
<glyph unicode="&#xe5;" horiz-adv-x="1331" d="M96 1161v-323h453q0 86 25 132t88 46q39 -8 52 -35t13 -74q0 -22 -0.5 -36.5t-1.5 -32.5l-354 -113q-78 -16 -157 -63t-130 -124t-51 -184q11 -203 118 -295t269 -92q88 0 146 20q58 19 124 63l68 46v-96h532v291q-27 25 -37.5 35.5t-19 35t-8.5 58.5v516 q0 135 -78.5 222.5t-199.5 126t-253 38.5q-169 0 -322.5 -36.5t-275.5 -125.5zM725 387q-15 -23 -54 -45.5t-73 -22.5q-66 0 -66 84q0 61 72.5 91t120.5 38v-145zM451 1571q0 93 61.5 145t161.5 62q101 0 163 -52.5t66 -138.5q0 -67 -70.5 -125t-140.5 -63q-97 0 -169 49.5 t-72 122.5zM537 1579q0 -43 45 -72.5t100 -29.5q40 3 83.5 38t43.5 76q-3 51 -39.5 82t-97.5 31q-49 -2 -92 -36t-43 -89z" />
<glyph unicode="&#xe6;" horiz-adv-x="2089" d="M725 387v145q-48 -8 -120.5 -38t-72.5 -91q0 -84 66 -84q34 0 73 22.5t54 45.5zM1362 819h192q0 93 -19.5 135.5t-76.5 42.5t-76.5 -42.5t-19.5 -135.5zM1006 1262q76 21 207 39t253 18q152 0 279 -37.5t202.5 -123.5t75.5 -224v-404h-661v-129q0 -67 23.5 -99t58.5 -32 q31 0 54.5 27t23.5 72v97h501v-339q-42 -42 -139.5 -83.5t-222 -68t-236.5 -26.5q-180 9 -295 51h-372v96l-68 -46q-66 -44 -124 -63.5t-146 -19.5q-162 0 -269 92t-118 295q0 80 31.5 146.5t81.5 111t108 73.5t117 40l354 113q1 18 1.5 32.5t0.5 36.5q0 47 -13 74t-52 35 q-63 0 -88 -46t-25 -132h-453v323q122 89 275.5 125t322.5 37q177 0 312 -61z" />
<glyph unicode="&#xe7;" horiz-adv-x="1229" d="M80 403q0 -133 43.5 -217t118.5 -129.5t156 -62.5t198 -27q20 -2 63 -2q67 0 138 10.5t145.5 32.5t140.5 57t111 80v404h-453v-113q0 -81 -20 -121.5t-76 -40.5q-37 0 -54.5 22.5t-21.5 57t-4 97.5v403q0 82 20 122t77 40q52 0 65.5 -32t13.5 -97v-80h453v338 q-142 162 -565 162q-213 0 -333 -47.5t-168 -142t-48 -247.5v-467zM573 -272q-71 29 -71 104q0 27 10 57q24 64 106 64q34 0 70 -12q98 -39 98 -121q0 -31 -12 -66q-55 -186 -199 -186q-121 0 -276 129l35 37q126 -72 182 -72q60 0 57 66z" />
<glyph unicode="&#xe8;" horiz-adv-x="1270" d="M63 403q0 -114 35 -193.5t105.5 -131.5t170.5 -77.5t238 -33.5q113 0 237.5 26.5t222 68.5t138.5 83v339h-501v-97q0 -44 -23.5 -71t-54.5 -27q-35 0 -58.5 32t-23.5 99v129h661v403q0 105 -45.5 178t-123 115t-178 60t-218.5 18q-147 0 -253 -19t-179 -67t-111.5 -133.5 t-38.5 -216.5v-484zM549 838q0 93 19.5 135.5t76.5 42.5t76.5 -42.5t19.5 -135.5h-192zM281 1774l225 -338h242l-113 338h-354z" />
<glyph unicode="&#xe9;" horiz-adv-x="1270" d="M63 403q0 -114 35 -193.5t105.5 -131.5t170.5 -77.5t238 -33.5q113 0 237.5 26.5t222 68.5t138.5 83v339h-501v-97q0 -44 -23.5 -71t-54.5 -27q-35 0 -58.5 32t-23.5 99v129h661v403q0 105 -45.5 178t-123 115t-178 60t-218.5 18q-147 0 -253 -19t-179 -67t-111.5 -133.5 t-38.5 -216.5v-484zM549 838q0 93 19.5 135.5t76.5 42.5t76.5 -42.5t19.5 -135.5h-192zM993 1774h-354l-113 -338h242z" />
<glyph unicode="&#xea;" horiz-adv-x="1249" d="M63 403q0 -114 35 -193.5t105.5 -131.5t170.5 -77.5t238 -33.5q113 0 237.5 26.5t222 68.5t138.5 83v339h-501v-97q0 -44 -23.5 -71t-54.5 -27q-35 0 -58.5 32t-23.5 99v129h661v403q0 105 -45.5 178t-123 115t-178 60t-218.5 18q-147 0 -253 -19t-179 -67t-111.5 -133.5 t-38.5 -216.5v-484zM549 838q0 93 19.5 135.5t76.5 42.5t76.5 -42.5t19.5 -135.5h-192zM670 1790l385 -303l-82 -82l-303 237l-279 -229l-74 74z" />
<glyph unicode="&#xeb;" horiz-adv-x="1290" d="M63 403q0 -114 35 -193.5t105.5 -131.5t170.5 -77.5t238 -33.5q113 0 237.5 26.5t222 68.5t138.5 83v339h-501v-97q0 -44 -23.5 -71t-54.5 -27q-35 0 -58.5 32t-23.5 99v129h661v403q0 105 -45.5 178t-123 115t-178 60t-218.5 18q-147 0 -253 -19t-179 -67t-111.5 -133.5 t-38.5 -216.5v-484zM549 838q0 93 19.5 135.5t76.5 42.5t76.5 -42.5t19.5 -135.5h-192zM446 1399q67 0 106.5 44t39.5 101q0 58 -38.5 102t-107.5 44q-68 0 -106.5 -41.5t-38.5 -104.5q0 -59 41.5 -102t103.5 -43zM893 1399q66 0 105.5 44t39.5 101q0 58 -38.5 102 t-106.5 44q-70 0 -107.5 -41.5t-37.5 -104.5q0 -60 41 -102.5t104 -42.5z" />
<glyph unicode="&#xec;" horiz-adv-x="717" d="M49 1290h547v-839q0 -144 66 -144v-307h-613v291q29 15 39 39.5t12 58.5q0 28 -4 62v403q0 57 -10.5 81t-36.5 48v307zM0 1774l225 -338h242l-113 338h-354z" />
<glyph unicode="&#xed;" horiz-adv-x="676" d="M49 1290h547v-839q0 -144 66 -144v-307h-613v291q29 15 39 39.5t12 58.5q0 28 -4 62v403q0 57 -10.5 81t-36.5 48v307zM748 1774h-355l-112 -338h241z" />
<glyph unicode="&#xee;" horiz-adv-x="676" d="M49 1290h547v-839q0 -144 66 -144v-307h-613v291q29 15 39 39.5t12 58.5q0 28 -4 62v403q0 57 -10.5 81t-36.5 48v307zM342 1790l385 -303l-82 -82l-303 237l-279 -229l-73 74z" />
<glyph unicode="&#xef;" horiz-adv-x="717" d="M49 1290h547v-839q0 -144 66 -144v-307h-613v291q29 15 39 39.5t12 58.5q0 28 -4 62v403q0 57 -10.5 81t-36.5 48v307zM111 1456q45 0 78 21.5t50 55t17 69.5q0 57 -38.5 101t-106.5 44q-70 0 -108 -41t-38 -104q0 -59 41.5 -102.5t104.5 -43.5zM557 1456q45 0 78 21.5 t50 55t17 69.5q0 57 -38.5 101t-106.5 44q-70 0 -107.5 -41.5t-37.5 -103.5q0 -60 40.5 -103t104.5 -43z" />
<glyph unicode="&#xf0;" horiz-adv-x="1257" d="M725 420v500q0 36 -13 60.5t-35 38t-48 13.5q-39 0 -68 -33.5t-29 -95.5v-483q0 -60 29 -96.5t68 -36.5q25 0 47.5 15.5t35.5 45t13 72.5zM373 1608l-103 96l74 90q-1 0 113 -102q127 127 133 127l65 -82l-116 -121l94 -83l108 -97l79 -72l61 -57q179 -28 254 -121.5 t75 -282.5v-483q0 -137 -35.5 -223t-107 -132t-176 -63.5t-262.5 -17.5q-207 0 -331 37.5t-186.5 138.5t-62.5 291v452q0 155 54.5 247t180 132.5t345.5 40.5q8 0 27 -2t26 -2q6 0 6 4l-233 209l-119 -123l-90 66q0 -1 127 133z" />
<glyph unicode="&#xf1;" horiz-adv-x="1393" d="M49 1290v-307q64 -22 64 -129v-387q0 -64 -10.5 -101.5t-53.5 -58.5v-307h629v307q-66 42 -66 144v485q36 20 68 20q34 0 59 -21t38.5 -55t13.5 -73v-404q0 -210 16 -403h547v291q-34 24 -49 63.5t-15 112.5v516q0 67 -21.5 142t-100.5 136.5t-232 61.5 q-102 0 -174.5 -13.5t-149.5 -68.5v49h-563zM287 1460q91 90 159 128t119 38q36 0 66.5 -14t69.5 -40t59.5 -36t52.5 -10q93 0 231 143l82 -141q-178 -170 -297 -170q-34 0 -61.5 11t-62.5 32.5t-65.5 35t-59.5 13.5q-87 0 -215 -131z" />
<glyph unicode="&#xf2;" horiz-adv-x="1249" d="M49 451q0 -190 62.5 -291t186.5 -138.5t331 -37.5q158 0 262.5 17.5t176 63.5t107 132t35.5 223v483q0 162 -54 252.5t-180 129t-347 38.5q-220 0 -345.5 -40.5t-180 -132.5t-54.5 -247v-452zM725 420q0 -43 -13 -72.5t-35.5 -45t-47.5 -15.5q-39 0 -68 36.5t-29 96.5 v483q0 62 29 95.5t68 33.5q26 0 48 -13.5t35 -38t13 -60.5v-500zM322 1774l225 -338h241l-112 338h-354z" />
<glyph unicode="&#xf3;" horiz-adv-x="1249" d="M49 451q0 -190 62.5 -291t186.5 -138.5t331 -37.5q158 0 262.5 17.5t176 63.5t107 132t35.5 223v483q0 162 -54 252.5t-180 129t-347 38.5q-220 0 -345.5 -40.5t-180 -132.5t-54.5 -247v-452zM725 420q0 -43 -13 -72.5t-35.5 -45t-47.5 -15.5q-39 0 -68 36.5t-29 96.5 v483q0 62 29 95.5t68 33.5q26 0 48 -13.5t35 -38t13 -60.5v-500zM952 1774h-354l-113 -338h242z" />
<glyph unicode="&#xf4;" horiz-adv-x="1249" d="M49 451q0 -190 62.5 -291t186.5 -138.5t331 -37.5q158 0 262.5 17.5t176 63.5t107 132t35.5 223v483q0 162 -54 252.5t-180 129t-347 38.5q-220 0 -345.5 -40.5t-180 -132.5t-54.5 -247v-452zM725 420q0 -43 -13 -72.5t-35.5 -45t-47.5 -15.5q-39 0 -68 36.5t-29 96.5 v483q0 62 29 95.5t68 33.5q26 0 48 -13.5t35 -38t13 -60.5v-500zM629 1790l385 -303l-82 -82l-303 237l-279 -229l-74 74z" />
<glyph unicode="&#xf5;" horiz-adv-x="1249" d="M49 451q0 -190 62.5 -291t186.5 -138.5t331 -37.5q158 0 262.5 17.5t176 63.5t107 132t35.5 223v483q0 162 -54 252.5t-180 129t-347 38.5q-220 0 -345.5 -40.5t-180 -132.5t-54.5 -247v-452zM725 420q0 -43 -13 -72.5t-35.5 -45t-47.5 -15.5q-39 0 -68 36.5t-29 96.5 v483q0 62 29 95.5t68 33.5q26 0 48 -13.5t35 -38t13 -60.5v-500zM246 1460q91 90 159 128t119 38q36 0 66.5 -14t69.5 -40t59.5 -36t52.5 -10q93 0 232 143l81 -141q-178 -170 -297 -170q-34 0 -61.5 11t-62.5 32.5t-65.5 35t-59.5 13.5q-87 0 -215 -131z" />
<glyph unicode="&#xf6;" horiz-adv-x="1270" d="M49 451q0 -190 62.5 -291t186.5 -138.5t331 -37.5q158 0 262.5 17.5t176 63.5t107 132t35.5 223v483q0 162 -54 252.5t-180 129t-347 38.5q-220 0 -345.5 -40.5t-180 -132.5t-54.5 -247v-452zM725 420q0 -43 -13 -72.5t-35.5 -45t-47.5 -15.5q-39 0 -68 36.5t-29 96.5 v483q0 62 29 95.5t68 33.5q26 0 48 -13.5t35 -38t13 -60.5v-500zM455 1374q45 0 78 21.5t50 55t17 69.5q0 57 -38.5 101t-106.5 44q-70 0 -108 -41t-38 -104q0 -59 41.5 -102.5t104.5 -43.5zM901 1374q68 0 107 44.5t39 101.5t-38.5 101t-107.5 44q-70 0 -107.5 -41.5 t-37.5 -103.5q0 -60 40.5 -103t104.5 -43z" />
<glyph unicode="&#xf7;" horiz-adv-x="1946" d="M760 1354q0 105 70.5 173t170.5 68q66 0 121 -27.5t88 -82t33 -131.5t-35.5 -132.5t-91.5 -83.5t-115 -28q-91 0 -166 65.5t-75 178.5zM768 209q0 107 71 174.5t171 67.5q103 0 172 -62.5t69 -179.5q0 -112 -74.5 -177t-166.5 -65q-93 0 -167.5 65t-74.5 177zM57 1008 h1860v-443h-1860v443z" />
<glyph unicode="&#xf8;" horiz-adv-x="1102" d="M98 193q-39 85 -39 206v545q0 131 54.5 220.5t169 134t286.5 44.5q114 0 197 -18l168 285l258 -111l-191 -319q52 -89 52 -224v-594q0 -131 -46 -215.5t-153.5 -128t-284.5 -43.5q-153 0 -264 37l-127 -215l-233 135zM483 846l119 203q-16 4 -33 4q-86 0 -86 -109v-98z M641 575l-149 -251q18 -58 77 -58q42 0 57 31t15 90v188z" />
<glyph unicode="&#xf9;" horiz-adv-x="1331" d="M16 1290v-274q37 -24 50.5 -55t13.5 -91v-483q0 -143 33 -230t114.5 -130t223.5 -43q99 0 179.5 25.5t110.5 53.5v-63h566v291q-22 13 -38 36.5t-22 53.5t-6 70v839h-563v-274q34 -23 48.5 -51.5t14.5 -77.5v-533q-45 -24 -75 -24q-52 0 -69 64.5t-17 185.5v548 q0 51 -11.5 94.5t-36.5 67.5h-516zM322 1774l225 -338h241l-112 338h-354z" />
<glyph unicode="&#xfa;" horiz-adv-x="1331" d="M16 1290v-274q37 -24 50.5 -55t13.5 -91v-483q0 -143 33 -230t114.5 -130t223.5 -43q99 0 179.5 25.5t110.5 53.5v-63h566v291q-22 13 -38 36.5t-22 53.5t-6 70v839h-563v-274q34 -23 48.5 -51.5t14.5 -77.5v-533q-45 -24 -75 -24q-52 0 -69 64.5t-17 185.5v548 q0 51 -11.5 94.5t-36.5 67.5h-516zM952 1774h-354l-113 -338h242z" />
<glyph unicode="&#xfb;" horiz-adv-x="1331" d="M16 1290v-274q37 -24 50.5 -55t13.5 -91v-483q0 -143 33 -230t114.5 -130t223.5 -43q99 0 179.5 25.5t110.5 53.5v-63h566v291q-22 13 -38 36.5t-22 53.5t-6 70v839h-563v-274q34 -23 48.5 -51.5t14.5 -77.5v-533q-45 -24 -75 -24q-52 0 -69 64.5t-17 185.5v548 q0 51 -11.5 94.5t-36.5 67.5h-516zM629 1790l385 -303l-82 -82l-303 237l-279 -229l-74 74z" />
<glyph unicode="&#xfc;" horiz-adv-x="1352" d="M16 1290v-274q37 -24 50.5 -55t13.5 -91v-483q0 -143 33 -230t114.5 -130t223.5 -43q99 0 179.5 25.5t110.5 53.5v-63h566v291q-22 13 -38 36.5t-22 53.5t-6 70v839h-563v-274q34 -23 48.5 -51.5t14.5 -77.5v-533q-45 -24 -75 -24q-52 0 -69 64.5t-17 185.5v548 q0 51 -11.5 94.5t-36.5 67.5h-516zM406 1382q45 0 78 21.5t50 55t17 69.5q0 57 -38.5 101t-106.5 44q-69 0 -107.5 -41.5t-38.5 -103.5q0 -59 41 -102.5t105 -43.5zM852 1382q45 0 78 21.5t50 55t17 69.5q0 57 -38.5 101t-106.5 44q-69 0 -107 -41.5t-38 -103.5 q0 -60 40.5 -103t104.5 -43z" />
<glyph unicode="&#xfd;" horiz-adv-x="1331" d="M16 1290v-291q28 -16 49 -44t37 -66q16 -37 32 -89l44 -138l242 -678q-34 -129 -195 -129v-291q46 -21 110 -33t124 -12q103 0 186 30q79 31 124.5 71.5t76.5 109.5t74 207l258 804q18 60 31.5 109.5t32 88t48.5 60.5v291h-549v-291q52 -8 52 -61q0 -18 -5.5 -43t-16 -65 t-13.5 -56l-49 -209l-64 209q-3 16 -13.5 56t-16 64.5t-5.5 43.5q0 53 52 61v291h-646zM993 1774h-354l-113 -338h242z" />
<glyph unicode="&#xfe;" horiz-adv-x="1339" d="M25 2111h571v-630q73 44 148.5 71t175.5 27q170 0 262 -82.5t92 -241.5v-579q0 -161 -54 -282.5t-253 -153.5q-44 -7 -82 -7q-182 0 -289 86q0 -16 -6 -97t-6 -132q0 -84 17.5 -144.5t60.5 -80.5v-223h-613v223q44 23 58 63t14 99l-6 1671q0 68 -26.5 118t-63.5 62v233z M596 1192v-582q53 -20 94 -20q101 0 101 149v340q0 140 -97 140q-39 0 -98 -27z" />
<glyph unicode="&#xff;" horiz-adv-x="1290" d="M16 1290v-291q28 -16 49 -44t37 -66q16 -37 32 -89l44 -138l242 -678q-34 -129 -195 -129v-291q46 -21 110 -33t124 -12q103 0 186 30q79 31 124.5 71.5t76.5 109.5t74 207l258 804q18 60 31.5 109.5t32 88t48.5 60.5v291h-549v-291q52 -8 52 -61q0 -18 -5.5 -43t-16 -65 t-13.5 -56l-49 -209l-64 209q-3 16 -13.5 56t-16 64.5t-5.5 43.5q0 53 52 61v291h-646zM463 1432q68 0 106.5 44t38.5 101t-38.5 101t-106.5 44t-107 -42.5t-39 -102.5q0 -59 42 -102t104 -43zM909 1432q69 0 107.5 44t38.5 101t-38.5 101t-107.5 44t-107 -41.5t-38 -103.5 q0 -60 41 -102.5t104 -42.5z" />
<glyph unicode="&#x152;" horiz-adv-x="2273" d="M725 -16q-301 0 -481.5 129t-180.5 403v725q0 141 37 243.5t110.5 170t186.5 101.5t265 34l264 -33h1323v-612h-516v112q0 113 -193 113v-321h354v-340h-354v-338q82 0 125.5 18.5t55.5 45t12 65.5v129h516v-629h-1323q-129 -18 -144 -18q-7 1 -14 1.5t-43 0.5zM975 483 v795q0 48 -20 80.5t-55.5 47.5t-74.5 15q-34 0 -68.5 -10.5t-63.5 -29.5t-46.5 -47.5t-17.5 -59.5v-807q0 -72 58 -119t130 -47q67 0 112.5 45t45.5 137z" />
<glyph unicode="&#x153;" horiz-adv-x="1741" d="M565 -12q-224 0 -360.5 97t-136.5 302v545q0 207 111.5 309t336.5 102l199 -24h993v-461h-387v86q0 84 -145 84v-242h266v-254h-266v-253q90 0 117.5 26t27.5 70v96h387v-471h-993q-98 -14 -107 -14q-5 1 -10.5 1.5t-32.5 0.5zM752 362v596q0 37 -15 61.5t-40 36 t-58 11.5q-57 0 -102 -31.5t-45 -79.5v-606q0 -53 43.5 -89t97.5 -36q50 0 84.5 34.5t34.5 102.5z" />
<glyph unicode="&#x178;" horiz-adv-x="1434" d="M16 1757h629v-241q0 -76 21.5 -134.5t74.5 -171.5q97 143 97 306v241h565v-305q-78 -78 -129 -178l-291 -596v-227q0 -39 6 -65.5t21.5 -46t38.5 -32.5v-307h-678v307q45 33 55 60.5t10 83.5v211l-274 548q-10 19 -38.5 86.5t-54 108t-53.5 47.5v305zM512 1841 q45 0 78 21.5t50 55t17 69.5q0 57 -38.5 101t-106.5 44t-106.5 -41.5t-38.5 -103.5q0 -59 41 -102.5t104 -43.5zM958 1841q68 0 107 44.5t39 101.5t-38.5 101t-107.5 44q-70 0 -107.5 -41.5t-37.5 -103.5q0 -60 40.5 -103t104.5 -43z" />
<glyph unicode="&#x2c6;" horiz-adv-x="1270" d="M858 2486l369 -602l-159 -52q-96 -32 -95 -34l-295 492l-336 -510l-262 104l434 602h344z" />
<glyph unicode="&#x2dc;" horiz-adv-x="819" d="M0 1460q91 90 159.5 128t119.5 38q37 0 66.5 -14t68.5 -40t59.5 -36t52.5 -10q93 0 232 143l82 -141q-179 -170 -297 -170q-34 0 -61.5 11t-66 34t-66 35t-56.5 12q-87 0 -215 -131z" />
<glyph unicode="&#x2000;" horiz-adv-x="1309" />
<glyph unicode="&#x2001;" horiz-adv-x="2619" />
<glyph unicode="&#x2002;" horiz-adv-x="1309" />
<glyph unicode="&#x2003;" horiz-adv-x="2619" />
<glyph unicode="&#x2004;" horiz-adv-x="873" />
<glyph unicode="&#x2005;" horiz-adv-x="654" />
<glyph unicode="&#x2006;" horiz-adv-x="436" />
<glyph unicode="&#x2007;" horiz-adv-x="436" />
<glyph unicode="&#x2008;" horiz-adv-x="327" />
<glyph unicode="&#x2009;" horiz-adv-x="523" />
<glyph unicode="&#x200a;" horiz-adv-x="145" />
<glyph unicode="&#x2010;" d="M0 903v-420h694v420h-694z" />
<glyph unicode="&#x2011;" d="M0 903v-420h694v420h-694z" />
<glyph unicode="&#x2012;" d="M0 903v-420h694v420h-694z" />
<glyph unicode="&#x2013;" horiz-adv-x="1372" d="M6 1008h1327v-279h-1327v279z" />
<glyph unicode="&#x2014;" horiz-adv-x="2048" d="M8 1008h1983q1 -31 2.5 -92.5t1.5 -114.5q0 -72 -4 -72h-1983v279z" />
<glyph unicode="&#x2018;" d="M375 1497q11 43 43.5 83.5t101.5 109.5l-98 82q-158 -92 -242 -259q-43 -91 -43 -172q0 -100 62 -165.5t176 -65.5q95 0 147.5 55.5t52.5 132.5q0 51 -24 97t-69 74t-107 28z" />
<glyph unicode="&#x2019;" d="M338 1386q-11 -43 -47.5 -88t-97.5 -104l98 -82q156 92 241 258q43 89 43 172q0 104 -61 168t-176 64q-95 0 -148 -57t-53 -132q0 -79 53.5 -139t147.5 -60z" />
<glyph unicode="&#x201a;" d="M322 0q-9 -53 -44.5 -99t-99.5 -110l113 -98q72 49 148.5 135.5t125.5 171.5q33 64 33 158q0 116 -65.5 197t-210.5 81q-99 0 -155 -64t-56 -153q0 -52 24 -101.5t71 -81.5t116 -36z" />
<glyph unicode="&#x201c;" horiz-adv-x="1331" d="M1051 1561q66 -4 114.5 -36t72.5 -81.5t24 -102.5q0 -56 -25 -106t-73 -80.5t-113 -30.5q-145 0 -211 82t-66 197q0 94 33 158q50 86 128 173t146 134l113 -99q-58 -56 -96 -105.5t-47 -102.5zM387 1561q66 -4 114.5 -36t72.5 -81.5t24 -102.5q0 -56 -25 -106t-73 -80.5 t-113 -30.5q-144 0 -210 81.5t-66 197.5q0 92 32 158q48 82 127.5 171t147.5 136l112 -99q-64 -64 -99 -109.5t-44 -98.5z" />
<glyph unicode="&#x201d;" horiz-adv-x="1331" d="M322 1434q-69 4 -116 35.5t-71 81t-24 102.5q0 87 56 152t155 65t160.5 -40t88.5 -102.5t27 -136.5q0 -44 -8 -84.5t-25 -72.5q-48 -83 -127 -172t-147 -136l-113 99q64 64 99.5 110t44.5 99zM985 1434q-69 4 -116 35.5t-71 81t-24 102.5q0 56 25 106t73 80.5t113 30.5 q99 0 161 -40t89 -102.5t27 -136.5q0 -89 -33 -157q-53 -90 -129 -175.5t-146 -132.5l-112 99q64 64 99 110.5t44 98.5z" />
<glyph unicode="&#x201e;" horiz-adv-x="1331" d="M322 0q-69 4 -116 36t-71 81.5t-24 101.5q0 89 56 153t155 64q145 0 210.5 -81t65.5 -197q0 -94 -33 -158q-49 -85 -125.5 -171.5t-148.5 -135.5l-113 98q64 64 99.5 110t44.5 99zM985 0q-69 4 -116 36t-71 81.5t-24 101.5q0 87 57 152t154 65q146 0 211.5 -81t65.5 -197 q0 -90 -33 -158q-54 -92 -127.5 -174.5t-147.5 -132.5l-112 98q64 64 99 110.5t44 98.5z" />
<glyph unicode="&#x2022;" horiz-adv-x="532" d="M0 958q0 89 68 150.5t194 71.5q132 -16 189 -75t57 -171q0 -50 -25 -97.5t-81 -82t-140 -41.5q-96 0 -179 61.5t-83 183.5z" />
<glyph unicode="&#x2026;" horiz-adv-x="2314" d="M96 209q0 107 71 174.5t171 67.5q103 0 172.5 -62.5t69.5 -179.5q0 -112 -74.5 -177t-167.5 -65t-167.5 65t-74.5 177zM915 217q0 107 71 174.5t171 67.5q103 0 172.5 -62.5t69.5 -179.5q0 -112 -74.5 -177t-167.5 -65t-167.5 65t-74.5 177zM1710 201q0 71 33.5 126 t89.5 85t119 30q103 0 172 -62.5t69 -178.5q0 -112 -74.5 -177t-166.5 -65q-93 0 -167.5 65t-74.5 177z" />
<glyph unicode="&#x202f;" horiz-adv-x="523" />
<glyph unicode="&#x2039;" horiz-adv-x="922" d="M-8 803l803 368l70 -158q42 -95 44 -95l-655 -295l680 -336l-139 -262l-803 434v344z" />
<glyph unicode="&#x203a;" horiz-adv-x="922" d="M934 803v-344l-803 -434l-139 262l680 336l-656 295q3 0 45 95l70 158z" />
<glyph unicode="&#x205f;" horiz-adv-x="654" />
<glyph unicode="&#x2122;" horiz-adv-x="1386" d="M6 1747h606v-315h-161v122q0 14 -5 24t-26 15v-348q0 -63 24 -71v-130h-270v123q27 5 27 84v342q-33 0 -33 -45v-116h-162v315zM657 1747h285l70 -270l71 270h271v-121q-10 -6 -15.5 -10t-7.5 -14t-4 -43v-308q0 -39 4.5 -54t22.5 -23v-130h-264v130q17 6 21.5 22t4.5 57 t-0.5 79t-1.5 87l-96 -375h-64l-98 369v-124t3 -77t7 -25t17 -13v-130h-226v130q17 4 22 16.5t5 46.5v317q0 42 -6 53.5t-21 18.5v121z" />
<glyph unicode="&#xe000;" horiz-adv-x="1290" d="M0 1290h1290v-1290h-1290v1290z" />
<glyph unicode="&#xfb01;" horiz-adv-x="1468" d="M823 1290v-307q26 -24 36.5 -48t10.5 -81v-403q1 -19 1.5 -35t0.5 -37q0 -64 -49 -88v-291h613v307q-66 0 -66 144v839h-547zM837 1581q0 -54 35 -103.5t95.5 -78.5t128.5 -29q116 0 195 54t79 157q0 69 -37 116.5t-95 70t-126 22.5q-69 0 -131.5 -22.5t-103 -70.5 t-40.5 -116zM33 999h63v-548q0 -64 -10.5 -101.5t-52.5 -58.5v-291h612v291q-45 23 -55 57.5t-10 118.5v532h145v291h-145q0 101 48 139.5t130 38.5v289q-72 22 -153 27.5t-185 5.5q-167 0 -245.5 -116t-78.5 -271v-113h-63v-291z" />
<glyph unicode="&#xfb02;" horiz-adv-x="1468" d="M823 1757v-305q43 -11 53.5 -48t10.5 -114v-839q0 -56 -11 -97.5t-53 -62.5v-291h613v291q-25 12 -37.5 29t-19 40.5t-8 50t-1.5 72.5v1274h-547zM33 999h63v-548q0 -64 -10.5 -101.5t-52.5 -58.5v-291h612v291q-45 23 -55 57.5t-10 118.5v532h145v291h-145 q0 101 48 139.5t130 38.5v289q-72 22 -153 27.5t-185 5.5q-167 0 -245.5 -116t-78.5 -271v-113h-63v-291z" />
<glyph unicode="&#xfb03;" horiz-adv-x="2242" d="M1597 1290v-307q26 -24 36.5 -48t10.5 -81v-403q1 -19 1.5 -35t0.5 -37q0 -64 -49 -88v-291h613v307q-66 0 -66 144v839h-547zM1611 1581q0 -54 35 -103.5t95.5 -78.5t128.5 -29q116 0 195 54t79 157q0 69 -37 116.5t-95 70t-126 22.5q-69 0 -131.5 -22.5t-103 -70.5 t-40.5 -116zM807 999h63v-548q0 -64 -10.5 -101.5t-52.5 -58.5v-291h612v291q-45 23 -55 57.5t-10 118.5v532h145v291h-145q0 101 48 139.5t130 38.5v289q-72 22 -153 27.5t-185 5.5q-167 0 -245.5 -116t-78.5 -271v-113h-63v-291zM33 999h63v-548q0 -64 -10.5 -101.5 t-52.5 -58.5v-291h612v291q-45 23 -55 57.5t-10 118.5v532h145v291h-145q0 101 48 139.5t130 38.5v289q-72 22 -153 27.5t-185 5.5q-167 0 -245.5 -116t-78.5 -271v-113h-63v-291z" />
<glyph unicode="&#xfb04;" horiz-adv-x="2242" d="M1597 1757v-305q43 -11 53.5 -48t10.5 -114v-839q0 -56 -11 -97.5t-53 -62.5v-291h613v291q-25 12 -37.5 29t-19 40.5t-8 50t-1.5 72.5v1274h-547zM807 999h63v-548q0 -64 -10.5 -101.5t-52.5 -58.5v-291h612v291q-45 23 -55 57.5t-10 118.5v532h145v291h-145 q0 101 48 139.5t130 38.5v289q-72 22 -153 27.5t-185 5.5q-167 0 -245.5 -116t-78.5 -271v-113h-63v-291zM33 999h63v-548q0 -64 -10.5 -101.5t-52.5 -58.5v-291h612v291q-45 23 -55 57.5t-10 118.5v532h145v291h-145q0 101 48 139.5t130 38.5v289q-72 22 -153 27.5 t-185 5.5q-167 0 -245.5 -116t-78.5 -271v-113h-63v-291z" />
</font>
</defs>
</svg>
